<svg xmlns="http://www.w3.org/2000/svg" width="1440" height="900"><path d="M771,442L660,603L802,593Z" fill="#a7392d" stroke="#a7392d" stroke-width="1.51"/><path d="M771,442L586,462L660,603Z" fill="#bb382a" stroke="#bb382a" stroke-width="1.51"/><path d="M771,442L665,314L586,462Z" fill="#ce3626" stroke="#ce3626" stroke-width="1.51"/><path d="M771,442L786,277L665,314Z" fill="#d13625" stroke="#d13625" stroke-width="1.51"/><path d="M992,472L786,277L771,442Z" fill="#b5382b" stroke="#b5382b" stroke-width="1.51"/><path d="M802,593L992,472L771,442Z" fill="#9f392f" stroke="#9f392f" stroke-width="1.51"/><path d="M586,462L432,662L660,603Z" fill="#bd3829" stroke="#bd3829" stroke-width="1.51"/><path d="M665,314L463,416L586,462Z" fill="#e03322" stroke="#e03322" stroke-width="1.51"/><path d="M802,593L1000,649L992,472Z" fill="#863932" stroke="#863932" stroke-width="1.51"/><path d="M946,739L1000,649L802,593Z" fill="#883731" stroke="#883731" stroke-width="1.51"/><path d="M790,852L946,739L802,593Z" fill="#9b372c" stroke="#9b372c" stroke-width="1.51"/><path d="M660,603L790,852L802,593Z" fill="#a3372c" stroke="#a3372c" stroke-width="1.51"/><path d="M432,662L584,812L660,603Z" fill="#c23526" stroke="#c23526" stroke-width="1.51"/><path d="M463,416L432,662L586,462Z" fill="#d13726" stroke="#d13726" stroke-width="1.51"/><path d="M584,812L790,852L660,603Z" fill="#b73426" stroke="#b73426" stroke-width="1.51"/><path d="M665,314L426,233L463,416Z" fill="#f82d1b" stroke="#f82d1b" stroke-width="1.51"/><path d="M786,277L681,134L665,314Z" fill="#e03928" stroke="#e03928" stroke-width="1.51"/><path d="M809,99L681,134L786,277Z" fill="#d84232" stroke="#d84232" stroke-width="1.51"/><path d="M992,472L1011,240L786,277Z" fill="#b7382a" stroke="#b7382a" stroke-width="1.51"/><path d="M1167,413L1011,240L992,472Z" fill="#ba3527" stroke="#ba3527" stroke-width="1.51"/><path d="M584,812L642,930L790,852Z" fill="#c62f21" stroke="#c62f21" stroke-width="1.51"/><path d="M514,914L642,930L584,812Z" fill="#d72b1b" stroke="#d72b1b" stroke-width="1.51"/><path d="M432,662L458,842L584,812Z" fill="#d33222" stroke="#d33222" stroke-width="1.51"/><path d="M432,662L320,825L458,842Z" fill="#d33a2a" stroke="#d33a2a" stroke-width="1.51"/><path d="M264,488L336,676L432,662Z" fill="#be4437" stroke="#be4437" stroke-width="1.51"/><path d="M681,134L426,233L665,314Z" fill="#f23825" stroke="#f23825" stroke-width="1.51"/><path d="M463,416L264,488L432,662Z" fill="#cf4030" stroke="#cf4030" stroke-width="1.51"/><path d="M1000,649L1138,673L992,472Z" fill="#8c3730" stroke="#8c3730" stroke-width="1.51"/><path d="M946,739L1138,673L1000,649Z" fill="#93362d" stroke="#93362d" stroke-width="1.51"/><path d="M1206,779L1138,673L946,739Z" fill="#9e3328" stroke="#9e3328" stroke-width="1.51"/><path d="M1008,956L946,739L790,852Z" fill="#9f3328" stroke="#9f3328" stroke-width="1.51"/><path d="M1011,240L809,99L786,277Z" fill="#c74032" stroke="#c74032" stroke-width="1.51"/><path d="M458,842L514,914L584,812Z" fill="#dd2b1b" stroke="#dd2b1b" stroke-width="1.51"/><path d="M1138,673L1167,413L992,472Z" fill="#a1362b" stroke="#a1362b" stroke-width="1.51"/><path d="M241,316L264,488L463,416Z" fill="#e74331" stroke="#e74331" stroke-width="1.51"/><path d="M642,930L811,1006L790,852Z" fill="#c33524" stroke="#c33524" stroke-width="1.51"/><path d="M832,1150L811,1006L636,1170Z" fill="#d77461" stroke="#d77461" stroke-width="1.51"/><path d="M426,233L241,316L463,416Z" fill="#f93c29" stroke="#f93c29" stroke-width="1.51"/><path d="M681,134L428,145L426,233Z" fill="#ff3e2a" stroke="#ff3e2a" stroke-width="1.51"/><path d="M586,-86L428,145L681,134Z" fill="#f74b39" stroke="#f74b39" stroke-width="1.51"/><path d="M1158,276L1006,128L1011,240Z" fill="#ca3c2d" stroke="#ca3c2d" stroke-width="1.51"/><path d="M1011,240L1006,128L809,99Z" fill="#bf4538" stroke="#bf4538" stroke-width="1.51"/><path d="M1167,413L1158,276L1011,240Z" fill="#cc3222" stroke="#cc3222" stroke-width="1.51"/><path d="M77,809L320,825L336,676Z" fill="#d34738" stroke="#d34738" stroke-width="1.51"/><path d="M336,676L320,825L432,662Z" fill="#cc3f30" stroke="#cc3f30" stroke-width="1.51"/><path d="M458,842L247,990L514,914Z" fill="#e53221" stroke="#e53221" stroke-width="1.51"/><path d="M811,1006L1008,956L790,852Z" fill="#b13a2b" stroke="#b13a2b" stroke-width="1.51"/><path d="M339,56L241,316L426,233Z" fill="#ff4a37" stroke="#ff4a37" stroke-width="1.51"/><path d="M1327,627L1299,406L1167,413Z" fill="#b83123" stroke="#b83123" stroke-width="1.51"/><path d="M1167,413L1299,406L1158,276Z" fill="#ca3021" stroke="#ca3021" stroke-width="1.51"/><path d="M1008,956L1206,779L946,739Z" fill="#a63225" stroke="#a63225" stroke-width="1.51"/><path d="M977,-36L773,-18L809,99Z" fill="#c95146" stroke="#c95146" stroke-width="1.51"/><path d="M809,99L773,-18L681,134Z" fill="#d94c3d" stroke="#d94c3d" stroke-width="1.51"/><path d="M1327,627L1167,413L1138,673Z" fill="#a13429" stroke="#a13429" stroke-width="1.51"/><path d="M1169,-63L977,-36L1006,128Z" fill="#c95044" stroke="#c95044" stroke-width="1.51"/><path d="M241,316L122,499L264,488Z" fill="#e14d3d" stroke="#e14d3d" stroke-width="1.51"/><path d="M264,488L73,565L336,676Z" fill="#c34c40" stroke="#c34c40" stroke-width="1.51"/><path d="M1206,779L1327,627L1138,673Z" fill="#a63126" stroke="#a63126" stroke-width="1.51"/><path d="M428,145L339,56L426,233Z" fill="#ff4b38" stroke="#ff4b38" stroke-width="1.51"/><path d="M241,316L63,286L122,499Z" fill="#f05140" stroke="#f05140" stroke-width="1.51"/><path d="M463,-108L339,56L428,145Z" fill="#ff5744" stroke="#ff5744" stroke-width="1.51"/><path d="M1006,128L977,-36L809,99Z" fill="#be4d42" stroke="#be4d42" stroke-width="1.51"/><path d="M1207,101L1006,128L1158,276Z" fill="#d13f30" stroke="#d13f30" stroke-width="1.51"/><path d="M247,990L478,1106L514,914Z" fill="#f2583f" stroke="#f2583f" stroke-width="1.51"/><path d="M514,914L478,1106L642,930Z" fill="#ea4830" stroke="#ea4830" stroke-width="1.51"/><path d="M811,1006L1017,1130L1008,956Z" fill="#b5594a" stroke="#b5594a" stroke-width="1.51"/><path d="M247,990L458,842L320,825Z" fill="#e13b29" stroke="#e13b29" stroke-width="1.51"/><path d="M1008,956L1202,963L1206,779Z" fill="#b72c1e" stroke="#b72c1e" stroke-width="1.51"/><path d="M636,1170L811,1006L642,930Z" fill="#d95c46" stroke="#d95c46" stroke-width="1.51"/><path d="M773,-18L586,-86L681,134Z" fill="#e55243" stroke="#e55243" stroke-width="1.51"/><path d="M651,-282L586,-86L773,-18Z" fill="#cf4435" stroke="#cf4435" stroke-width="1.51"/><path d="M1206,779L1357,789L1327,627Z" fill="#b12e21" stroke="#b12e21" stroke-width="1.51"/><path d="M1017,1130L1202,963L1008,956Z" fill="#c15341" stroke="#c15341" stroke-width="1.51"/><path d="M1353,240L1207,101L1158,276Z" fill="#db3727" stroke="#db3727" stroke-width="1.51"/><path d="M478,1106L636,1170L642,930Z" fill="#f0694f" stroke="#f0694f" stroke-width="1.51"/><path d="M122,499L73,565L264,488Z" fill="#d05144" stroke="#d05144" stroke-width="1.51"/><path d="M-71,573L73,565L-84,460Z" fill="#b9473c" stroke="#b9473c" stroke-width="1.51"/><path d="M77,809L247,990L320,825Z" fill="#e04535" stroke="#e04535" stroke-width="1.51"/><path d="M832,1150L1017,1130L811,1006Z" fill="#c06e5f" stroke="#c06e5f" stroke-width="1.51"/><path d="M1202,963L1271,936L1206,779Z" fill="#be291b" stroke="#be291b" stroke-width="1.51"/><path d="M1289,1084L1271,936L1202,963Z" fill="#cf4833" stroke="#cf4833" stroke-width="1.51"/><path d="M1271,936L1357,789L1206,779Z" fill="#bc2a1c" stroke="#bc2a1c" stroke-width="1.51"/><path d="M1459,396L1353,240L1299,406Z" fill="#dd3522" stroke="#dd3522" stroke-width="1.51"/><path d="M651,-282L463,-108L586,-86Z" fill="#d93e2e" stroke="#d93e2e" stroke-width="1.51"/><path d="M586,-86L463,-108L428,145Z" fill="#ff5542" stroke="#ff5542" stroke-width="1.51"/><path d="M1459,396L1299,406L1327,627Z" fill="#c23525" stroke="#c23525" stroke-width="1.51"/><path d="M1299,406L1353,240L1158,276Z" fill="#dc2b1b" stroke="#dc2b1b" stroke-width="1.51"/><path d="M92,127L241,316L339,56Z" fill="#ff5745" stroke="#ff5745" stroke-width="1.51"/><path d="M92,127L63,286L241,316Z" fill="#ff5744" stroke="#ff5744" stroke-width="1.51"/><path d="M73,565L77,809L336,676Z" fill="#c74e42" stroke="#c74e42" stroke-width="1.51"/><path d="M-20,808L77,809L73,565Z" fill="#c54c40" stroke="#c54c40" stroke-width="1.51"/><path d="M1353,240L1281,76L1207,101Z" fill="#e03f2d" stroke="#e03f2d" stroke-width="1.51"/><path d="M1207,101L1169,-63L1006,128Z" fill="#d14b3c" stroke="#d14b3c" stroke-width="1.51"/><path d="M463,-108L324,-73L339,56Z" fill="#fa5a49" stroke="#fa5a49" stroke-width="1.51"/><path d="M247,990L319,1137L478,1106Z" fill="#fb775f" stroke="#fb775f" stroke-width="1.51"/><path d="M478,1106L319,1137L636,1170Z" fill="#ff8368" stroke="#ff8368" stroke-width="1.51"/><path d="M142,1020L319,1137L247,990Z" fill="#f7745e" stroke="#f7745e" stroke-width="1.51"/><path d="M977,-36L938,-237L773,-18Z" fill="#b2483f" stroke="#b2483f" stroke-width="1.51"/><path d="M1281,76L1169,-63L1207,101Z" fill="#da4a3b" stroke="#da4a3b" stroke-width="1.51"/><path d="M1488,639L1459,396L1327,627Z" fill="#b84838" stroke="#b84838" stroke-width="1.51"/><path d="M1353,240L1519,115L1281,76Z" fill="#ea4a35" stroke="#ea4a35" stroke-width="1.51"/><path d="M80,-61L92,127L339,56Z" fill="#ff6758" stroke="#ff6758" stroke-width="1.51"/><path d="M1017,1130L1175,1144L1202,963Z" fill="#cd6754" stroke="#cd6754" stroke-width="1.51"/><path d="M1514,791L1488,639L1357,789Z" fill="#c14d3a" stroke="#c14d3a" stroke-width="1.51"/><path d="M832,1150L1175,1144L1017,1130Z" fill="#c67b6d" stroke="#c67b6d" stroke-width="1.51"/><path d="M636,1170L1175,1144L832,1150Z" fill="#c68074" stroke="#c68074" stroke-width="1.51"/><path d="M77,809L142,1020L247,990Z" fill="#e95240" stroke="#e95240" stroke-width="1.51"/><path d="M1514,791L1357,789L1529,933Z" fill="#d04f39" stroke="#d04f39" stroke-width="1.51"/><path d="M1357,789L1488,639L1327,627Z" fill="#b43e2d" stroke="#b43e2d" stroke-width="1.51"/><path d="M1175,1144L1289,1084L1202,963Z" fill="#d5624b" stroke="#d5624b" stroke-width="1.51"/><path d="M1130,-201L938,-237L977,-36Z" fill="#a93e34" stroke="#a93e34" stroke-width="1.51"/><path d="M463,-108L403,-227L324,-73Z" fill="#e64a39" stroke="#e64a39" stroke-width="1.51"/><path d="M77,809L-85,935L142,1020Z" fill="#de4939" stroke="#de4939" stroke-width="1.51"/><path d="M-71,573L-20,808L73,565Z" fill="#b3483e" stroke="#b3483e" stroke-width="1.51"/><path d="M-84,460L122,499L63,286Z" fill="#db4d3e" stroke="#db4d3e" stroke-width="1.51"/><path d="M-84,460L73,565L122,499Z" fill="#c94e42" stroke="#c94e42" stroke-width="1.51"/><path d="M938,-237L851,-265L773,-18Z" fill="#a93e33" stroke="#a93e33" stroke-width="1.51"/><path d="M-62,243L-84,460L63,286Z" fill="#e44535" stroke="#e44535" stroke-width="1.51"/><path d="M851,-265L651,-282L773,-18Z" fill="#b53c2e" stroke="#b53c2e" stroke-width="1.51"/><path d="M651,-282L403,-227L463,-108Z" fill="#d73625" stroke="#d73625" stroke-width="1.51"/><path d="M324,-73L80,-61L339,56Z" fill="#fd6557" stroke="#fd6557" stroke-width="1.51"/><path d="M1529,933L1357,789L1271,936Z" fill="#cd3422" stroke="#cd3422" stroke-width="1.51"/><path d="M1699,438L1543,320L1459,396Z" fill="#e96e56" stroke="#e96e56" stroke-width="1.51"/><path d="M1342,-113L1169,-63L1281,76Z" fill="#db4c3d" stroke="#db4c3d" stroke-width="1.51"/><path d="M1342,-113L1130,-201L1169,-63Z" fill="#c34032" stroke="#c34032" stroke-width="1.51"/><path d="M1169,-63L1130,-201L977,-36Z" fill="#bd463a" stroke="#bd463a" stroke-width="1.51"/><path d="M938,-237L1287,-297L851,-265Z" fill="#942f25" stroke="#942f25" stroke-width="1.51"/><path d="M-56,67L-62,243L92,127Z" fill="#ee5646" stroke="#ee5646" stroke-width="1.51"/><path d="M92,127L-62,243L63,286Z" fill="#f55343" stroke="#f55343" stroke-width="1.51"/><path d="M1459,396L1543,320L1353,240Z" fill="#ed4f35" stroke="#ed4f35" stroke-width="1.51"/><path d="M1615,628L1459,396L1488,639Z" fill="#c0604f" stroke="#c0604f" stroke-width="1.51"/><path d="M142,1020L109,1109L319,1137Z" fill="#fb8471" stroke="#fb8471" stroke-width="1.51"/><path d="M-85,935L109,1109L142,1020Z" fill="#ed6e5b" stroke="#ed6e5b" stroke-width="1.51"/><path d="M234,-216L80,-61L324,-73Z" fill="#ea5a4c" stroke="#ea5a4c" stroke-width="1.51"/><path d="M1519,115L1342,-113L1281,76Z" fill="#ea5442" stroke="#ea5442" stroke-width="1.51"/><path d="M403,-227L234,-216L324,-73Z" fill="#de4a3b" stroke="#de4a3b" stroke-width="1.51"/><path d="M-56,-252L234,-216L403,-227Z" fill="#d14b3c" stroke="#d14b3c" stroke-width="1.51"/><path d="M1514,791L1615,628L1488,639Z" fill="#c26352" stroke="#c26352" stroke-width="1.51"/><path d="M1543,320L1519,115L1353,240Z" fill="#f45b42" stroke="#f45b42" stroke-width="1.51"/><path d="M1636,138L1519,115L1543,320Z" fill="#fc785e" stroke="#fc785e" stroke-width="1.51"/><path d="M1514,791L1624,801L1615,628Z" fill="#cc6d5b" stroke="#cc6d5b" stroke-width="1.51"/><path d="M1289,1084L1529,933L1271,936Z" fill="#d84931" stroke="#d84931" stroke-width="1.51"/><path d="M-20,808L-85,935L77,809Z" fill="#cd4335" stroke="#cd4335" stroke-width="1.51"/><path d="M-286,833L-85,935L-20,808Z" fill="#bb3527" stroke="#bb3527" stroke-width="1.51"/><path d="M-286,833L-20,808L-71,573Z" fill="#ac392d" stroke="#ac392d" stroke-width="1.51"/><path d="M-87,-120L-56,67L80,-61Z" fill="#e76154" stroke="#e76154" stroke-width="1.51"/><path d="M80,-61L-56,67L92,127Z" fill="#f56557" stroke="#f56557" stroke-width="1.51"/><path d="M-62,243L-201,311L-84,460Z" fill="#d53b2b" stroke="#d53b2b" stroke-width="1.51"/><path d="M1529,933L1624,801L1514,791Z" fill="#d8654f" stroke="#d8654f" stroke-width="1.51"/><path d="M-84,460L-256,571L-71,573Z" fill="#a83b30" stroke="#a83b30" stroke-width="1.51"/><path d="M-261,151L-201,311L-62,243Z" fill="#d43a29" stroke="#d43a29" stroke-width="1.51"/><path d="M234,-216L96,-187L80,-61Z" fill="#e25a4d" stroke="#e25a4d" stroke-width="1.51"/><path d="M-201,311L-224,435L-84,460Z" fill="#be3628" stroke="#be3628" stroke-width="1.51"/><path d="M1529,933L1709,989L1624,801Z" fill="#e7755d" stroke="#e7755d" stroke-width="1.51"/><path d="M1289,1084L1497,1127L1529,933Z" fill="#e8735a" stroke="#e8735a" stroke-width="1.51"/><path d="M1175,1144L1497,1127L1289,1084Z" fill="#e5735a" stroke="#e5735a" stroke-width="1.51"/><path d="M1615,628L1699,438L1459,396Z" fill="#d5725f" stroke="#d5725f" stroke-width="1.51"/><path d="M1848,676L1699,438L1615,628Z" fill="#c68d85" stroke="#c68d85" stroke-width="1.51"/><path d="M1519,115L1546,-94L1342,-113Z" fill="#ef6e5b" stroke="#ef6e5b" stroke-width="1.51"/><path d="M1699,438L1674,274L1543,320Z" fill="#f98167" stroke="#f98167" stroke-width="1.51"/><path d="M-261,151L-256,571L-224,435Z" fill="#b62c1f" stroke="#b62c1f" stroke-width="1.51"/><path d="M-224,435L-256,571L-84,460Z" fill="#aa3529" stroke="#aa3529" stroke-width="1.51"/><path d="M1674,274L1636,138L1543,320Z" fill="#ff8066" stroke="#ff8066" stroke-width="1.51"/><path d="M1130,-201L1287,-297L938,-237Z" fill="#a23025" stroke="#a23025" stroke-width="1.51"/><path d="M851,-265L1287,-297L651,-282Z" fill="#882f26" stroke="#882f26" stroke-width="1.51"/><path d="M1342,-113L1287,-297L1130,-201Z" fill="#b63325" stroke="#b63325" stroke-width="1.51"/><path d="M1485,-264L1287,-297L1342,-113Z" fill="#bd3626" stroke="#bd3626" stroke-width="1.51"/><path d="M109,1109L-71,1179L319,1137Z" fill="#ff9a8a" stroke="#ff9a8a" stroke-width="1.51"/><path d="M319,1137L-71,1179L636,1170Z" fill="#ff9682" stroke="#ff9682" stroke-width="1.51"/><path d="M-85,935L-71,1179L109,1109Z" fill="#e87866" stroke="#e87866" stroke-width="1.51"/><path d="M-224,993L-71,1179L-85,935Z" fill="#d2604c" stroke="#d2604c" stroke-width="1.51"/><path d="M1636,138L1546,-94L1519,115Z" fill="#fb836f" stroke="#fb836f" stroke-width="1.51"/><path d="M96,-187L-87,-120L80,-61Z" fill="#dd5a4d" stroke="#dd5a4d" stroke-width="1.51"/><path d="M-56,67L-261,151L-62,243Z" fill="#db4838" stroke="#db4838" stroke-width="1.51"/><path d="M-256,571L-286,833L-71,573Z" fill="#973329" stroke="#973329" stroke-width="1.51"/><path d="M-286,833L-224,993L-85,935Z" fill="#b72c1e" stroke="#b72c1e" stroke-width="1.51"/><path d="M-201,311L-261,151L-224,435Z" fill="#ca2c1d" stroke="#ca2c1d" stroke-width="1.51"/><path d="M-256,571L-261,151L-286,833Z" fill="#982d22" stroke="#982d22" stroke-width="1.51"/><path d="M-251,-23L-261,151L-56,67Z" fill="#d14a3b" stroke="#d14a3b" stroke-width="1.51"/><path d="M1624,801L1848,676L1615,628Z" fill="#ce877a" stroke="#ce877a" stroke-width="1.51"/><path d="M1662,1114L1709,989L1529,933Z" fill="#f29781" stroke="#f29781" stroke-width="1.51"/><path d="M1668,-238L1485,-264L1546,-94Z" fill="#d56e5b" stroke="#d56e5b" stroke-width="1.51"/><path d="M1546,-94L1485,-264L1342,-113Z" fill="#d45945" stroke="#d45945" stroke-width="1.51"/><path d="M1497,1127L1662,1114L1529,933Z" fill="#f2957f" stroke="#f2957f" stroke-width="1.51"/><path d="M-87,-120L-251,-23L-56,67Z" fill="#d95649" stroke="#d95649" stroke-width="1.51"/><path d="M96,-187L-56,-252L-87,-120Z" fill="#c94b3f" stroke="#c94b3f" stroke-width="1.51"/><path d="M234,-216L-56,-252L96,-187Z" fill="#d35346" stroke="#d35346" stroke-width="1.51"/><path d="M651,-282L-56,-252L403,-227Z" fill="#cc3d2e" stroke="#cc3d2e" stroke-width="1.51"/><path d="M1636,138L1683,-106L1546,-94Z" fill="#fe9585" stroke="#fe9585" stroke-width="1.51"/><path d="M1674,274L1812,277L1636,138Z" fill="#ff9880" stroke="#ff9880" stroke-width="1.51"/><path d="M1699,438L1812,277L1674,274Z" fill="#ff977f" stroke="#ff977f" stroke-width="1.51"/><path d="M1862,434L1812,277L1699,438Z" fill="#f89d88" stroke="#f89d88" stroke-width="1.51"/><path d="M-266,-244L-251,-23L-87,-120Z" fill="#b94033" stroke="#b94033" stroke-width="1.51"/><path d="M1872,805L1848,676L1624,801Z" fill="#da9687" stroke="#da9687" stroke-width="1.51"/><path d="M1872,805L1624,801L1709,989Z" fill="#e9917d" stroke="#e9917d" stroke-width="1.51"/><path d="M1848,676L1862,434L1699,438Z" fill="#d8988c" stroke="#d8988c" stroke-width="1.51"/><path d="M1791,-108L1683,-106L1636,138Z" fill="#ffa99b" stroke="#ffa99b" stroke-width="1.51"/><path d="M-286,833L-224,1177L-224,993Z" fill="#bc4734" stroke="#bc4734" stroke-width="1.51"/><path d="M-224,993L-224,1177L-71,1179Z" fill="#d47562" stroke="#d47562" stroke-width="1.51"/><path d="M1892,954L1872,805L1709,989Z" fill="#f29680" stroke="#f29680" stroke-width="1.51"/><path d="M1848,676L1872,805L1862,434Z" fill="#c6958d" stroke="#c6958d" stroke-width="1.51"/><path d="M1795,-218L1668,-238L1683,-106Z" fill="#e19284" stroke="#e19284" stroke-width="1.51"/><path d="M1683,-106L1668,-238L1546,-94Z" fill="#e48574" stroke="#e48574" stroke-width="1.51"/><path d="M1485,-264L1668,-238L1287,-297Z" fill="#bf4e3b" stroke="#bf4e3b" stroke-width="1.51"/><path d="M1888,116L1636,138L1812,277Z" fill="#ffa894" stroke="#ffa894" stroke-width="1.51"/><path d="M1892,954L1888,116L1862,434Z" fill="#db998c" stroke="#db998c" stroke-width="1.51"/><path d="M1862,434L1888,116L1812,277Z" fill="#ffa188" stroke="#ffa188" stroke-width="1.51"/><path d="M1872,805L1892,954L1862,434Z" fill="#d59589" stroke="#d59589" stroke-width="1.51"/><path d="M1826,1107L1892,954L1709,989Z" fill="#f9b5a5" stroke="#f9b5a5" stroke-width="1.51"/><path d="M1888,116L1791,-108L1636,138Z" fill="#ffb2a4" stroke="#ffb2a4" stroke-width="1.51"/><path d="M1662,1114L1826,1107L1709,989Z" fill="#fbc1b2" stroke="#fbc1b2" stroke-width="1.51"/><path d="M1497,1127L1826,1107L1662,1114Z" fill="#fabeb0" stroke="#fabeb0" stroke-width="1.51"/><path d="M-56,-252L-266,-244L-87,-120Z" fill="#b23c2f" stroke="#b23c2f" stroke-width="1.51"/><path d="M-251,-23L-266,-244L-261,151Z" fill="#c2463a" stroke="#c2463a" stroke-width="1.51"/><path d="M-261,151L-266,-244L-286,833Z" fill="#c42d1d" stroke="#c42d1d" stroke-width="1.51"/><path d="M651,-282L-266,-244L-56,-252Z" fill="#cc4c40" stroke="#cc4c40" stroke-width="1.51"/><path d="M1888,116L1795,-218L1791,-108Z" fill="#fbaea3" stroke="#fbaea3" stroke-width="1.51"/><path d="M1791,-108L1795,-218L1683,-106Z" fill="#eca396" stroke="#eca396" stroke-width="1.51"/></svg>