<svg xmlns="http://www.w3.org/2000/svg" width="1440" height="900"><path d="M787,445L648,612L804,606Z" fill="#a5392d" stroke="#a5392d" stroke-width="1.51"/><path d="M787,445L607,456L648,612Z" fill="#b9382a" stroke="#b9382a" stroke-width="1.51"/><path d="M787,445L650,297L607,456Z" fill="#ce3626" stroke="#ce3626" stroke-width="1.51"/><path d="M787,445L795,277L650,297Z" fill="#d13525" stroke="#d13525" stroke-width="1.51"/><path d="M986,462L795,277L787,445Z" fill="#b5382b" stroke="#b5382b" stroke-width="1.51"/><path d="M804,606L986,462L787,445Z" fill="#9e392f" stroke="#9e392f" stroke-width="1.51"/><path d="M607,456L444,644L648,612Z" fill="#bd3829" stroke="#bd3829" stroke-width="1.51"/><path d="M650,297L462,431L607,456Z" fill="#e03322" stroke="#e03322" stroke-width="1.51"/><path d="M804,606L991,637L986,462Z" fill="#863932" stroke="#863932" stroke-width="1.51"/><path d="M961,764L991,637L804,606Z" fill="#893731" stroke="#893731" stroke-width="1.51"/><path d="M648,612L797,827L804,606Z" fill="#a3372c" stroke="#a3372c" stroke-width="1.51"/><path d="M444,644L606,804L648,612Z" fill="#c03526" stroke="#c03526" stroke-width="1.51"/><path d="M462,431L444,644L607,456Z" fill="#d13626" stroke="#d13626" stroke-width="1.51"/><path d="M606,804L797,827L648,612Z" fill="#b53427" stroke="#b53427" stroke-width="1.51"/><path d="M797,827L961,764L804,606Z" fill="#9a362c" stroke="#9a362c" stroke-width="1.51"/><path d="M986,462L997,256L795,277Z" fill="#b6382a" stroke="#b6382a" stroke-width="1.51"/><path d="M1160,429L997,256L986,462Z" fill="#b83628" stroke="#b83628" stroke-width="1.51"/><path d="M606,804L638,947L797,827Z" fill="#c43021" stroke="#c43021" stroke-width="1.51"/><path d="M444,644L459,821L606,804Z" fill="#d13222" stroke="#d13222" stroke-width="1.51"/><path d="M650,297L441,252L462,431Z" fill="#f72d1c" stroke="#f72d1c" stroke-width="1.51"/><path d="M275,471L314,652L444,644Z" fill="#c14336" stroke="#c14336" stroke-width="1.51"/><path d="M659,120L441,252L650,297Z" fill="#f43926" stroke="#f43926" stroke-width="1.51"/><path d="M659,120L650,297L795,277Z" fill="#e13b29" stroke="#e13b29" stroke-width="1.51"/><path d="M808,101L659,120L795,277Z" fill="#d94332" stroke="#d94332" stroke-width="1.51"/><path d="M490,938L638,947L606,804Z" fill="#d82a1b" stroke="#d82a1b" stroke-width="1.51"/><path d="M797,827L995,961L961,764Z" fill="#9f3328" stroke="#9f3328" stroke-width="1.51"/><path d="M444,644L306,811L459,821Z" fill="#d13b2b" stroke="#d13b2b" stroke-width="1.51"/><path d="M275,471L444,644L462,431Z" fill="#d03f30" stroke="#d03f30" stroke-width="1.51"/><path d="M991,637L1144,650L986,462Z" fill="#8e372f" stroke="#8e372f" stroke-width="1.51"/><path d="M961,764L1144,650L991,637Z" fill="#93362c" stroke="#93362c" stroke-width="1.51"/><path d="M997,256L808,101L795,277Z" fill="#c73f30" stroke="#c73f30" stroke-width="1.51"/><path d="M1144,650L1160,429L986,462Z" fill="#a2362b" stroke="#a2362b" stroke-width="1.51"/><path d="M262,298L275,471L462,431Z" fill="#e94230" stroke="#e94230" stroke-width="1.51"/><path d="M638,947L809,989L797,827Z" fill="#c13122" stroke="#c13122" stroke-width="1.51"/><path d="M961,764L1182,786L1144,650Z" fill="#9e3328" stroke="#9e3328" stroke-width="1.51"/><path d="M459,821L490,938L606,804Z" fill="#dd2b1b" stroke="#dd2b1b" stroke-width="1.51"/><path d="M635,1157L821,1146L809,989Z" fill="#d6705d" stroke="#d6705d" stroke-width="1.51"/><path d="M306,811L490,938L459,821Z" fill="#de3424" stroke="#de3424" stroke-width="1.51"/><path d="M441,252L262,298L462,431Z" fill="#f83b28" stroke="#f83b28" stroke-width="1.51"/><path d="M659,120L442,127L441,252Z" fill="#ff3e2a" stroke="#ff3e2a" stroke-width="1.51"/><path d="M607,-78L442,127L659,120Z" fill="#f64d3a" stroke="#f64d3a" stroke-width="1.51"/><path d="M1155,276L994,117L997,256Z" fill="#c93c2d" stroke="#c93c2d" stroke-width="1.51"/><path d="M997,256L994,117L808,101Z" fill="#be4438" stroke="#be4438" stroke-width="1.51"/><path d="M94,803L306,811L314,652Z" fill="#d14839" stroke="#d14839" stroke-width="1.51"/><path d="M314,652L306,811L444,644Z" fill="#ca4032" stroke="#ca4032" stroke-width="1.51"/><path d="M1160,429L1155,276L997,256Z" fill="#c93323" stroke="#c93323" stroke-width="1.51"/><path d="M809,989L995,961L797,827Z" fill="#b03527" stroke="#b03527" stroke-width="1.51"/><path d="M316,78L262,298L441,252Z" fill="#ff4936" stroke="#ff4936" stroke-width="1.51"/><path d="M1326,625L1310,425L1160,429Z" fill="#b53224" stroke="#b53224" stroke-width="1.51"/><path d="M1160,429L1310,425L1155,276Z" fill="#c73022" stroke="#c73022" stroke-width="1.51"/><path d="M995,961L1182,786L961,764Z" fill="#a73125" stroke="#a73125" stroke-width="1.51"/><path d="M978,-51L787,-41L808,101Z" fill="#c85347" stroke="#c85347" stroke-width="1.51"/><path d="M808,101L787,-41L659,120Z" fill="#d94d3f" stroke="#d94d3f" stroke-width="1.51"/><path d="M1326,625L1160,429L1144,650Z" fill="#a13429" stroke="#a13429" stroke-width="1.51"/><path d="M1155,276L1182,102L994,117Z" fill="#cf4031" stroke="#cf4031" stroke-width="1.51"/><path d="M262,298L119,477L275,471Z" fill="#e54c3b" stroke="#e54c3b" stroke-width="1.51"/><path d="M275,471L92,590L314,652Z" fill="#c54c3f" stroke="#c54c3f" stroke-width="1.51"/><path d="M1182,786L1326,625L1144,650Z" fill="#a43226" stroke="#a43226" stroke-width="1.51"/><path d="M442,127L316,78L441,252Z" fill="#ff4a37" stroke="#ff4a37" stroke-width="1.51"/><path d="M262,298L86,282L119,477Z" fill="#f44f3e" stroke="#f44f3e" stroke-width="1.51"/><path d="M462,-90L316,78L442,127Z" fill="#ff5643" stroke="#ff5643" stroke-width="1.51"/><path d="M995,961L1179,965L1182,786Z" fill="#b62c1f" stroke="#b62c1f" stroke-width="1.51"/><path d="M809,989L1000,1135L995,961Z" fill="#b45849" stroke="#b45849" stroke-width="1.51"/><path d="M635,1157L809,989L638,947Z" fill="#d95b44" stroke="#d95b44" stroke-width="1.51"/><path d="M787,-41L607,-78L659,120Z" fill="#e45344" stroke="#e45344" stroke-width="1.51"/><path d="M1182,786L1342,792L1326,625Z" fill="#b02e21" stroke="#b02e21" stroke-width="1.51"/><path d="M1000,1135L1179,965L995,961Z" fill="#bf5543" stroke="#bf5543" stroke-width="1.51"/><path d="M1340,257L1182,102L1155,276Z" fill="#da3727" stroke="#da3727" stroke-width="1.51"/><path d="M994,117L978,-51L808,101Z" fill="#bd4e43" stroke="#bd4e43" stroke-width="1.51"/><path d="M470,1121L635,1157L638,947Z" fill="#f16b51" stroke="#f16b51" stroke-width="1.51"/><path d="M470,1121L638,947L490,938Z" fill="#ef5036" stroke="#ef5036" stroke-width="1.51"/><path d="M119,477L92,590L275,471Z" fill="#d15043" stroke="#d15043" stroke-width="1.51"/><path d="M306,811L265,980L490,938Z" fill="#e43827" stroke="#e43827" stroke-width="1.51"/><path d="M787,-41L643,-264L607,-78Z" fill="#ce4435" stroke="#ce4435" stroke-width="1.51"/><path d="M1161,-66L978,-51L994,117Z" fill="#c95146" stroke="#c95146" stroke-width="1.51"/><path d="M94,803L265,980L306,811Z" fill="#df4535" stroke="#df4535" stroke-width="1.51"/><path d="M265,980L470,1121L490,938Z" fill="#f35c43" stroke="#f35c43" stroke-width="1.51"/><path d="M821,1146L1000,1135L809,989Z" fill="#c16c5e" stroke="#c16c5e" stroke-width="1.51"/><path d="M1295,950L1342,792L1182,786Z" fill="#bc2a1c" stroke="#bc2a1c" stroke-width="1.51"/><path d="M1476,420L1340,257L1310,425Z" fill="#da3724" stroke="#da3724" stroke-width="1.51"/><path d="M429,-234L462,-90L607,-78Z" fill="#e64231" stroke="#e64231" stroke-width="1.51"/><path d="M607,-78L462,-90L442,127Z" fill="#ff5341" stroke="#ff5341" stroke-width="1.51"/><path d="M1476,420L1310,425L1326,625Z" fill="#c03828" stroke="#c03828" stroke-width="1.51"/><path d="M1310,425L1340,257L1155,276Z" fill="#d92c1c" stroke="#d92c1c" stroke-width="1.51"/><path d="M92,590L94,803L314,652Z" fill="#c74e42" stroke="#c74e42" stroke-width="1.51"/><path d="M-72,455L-65,595L92,590Z" fill="#b8483d" stroke="#b8483d" stroke-width="1.51"/><path d="M92,590L-37,802L94,803Z" fill="#c64c40" stroke="#c64c40" stroke-width="1.51"/><path d="M102,117L86,282L262,298Z" fill="#ff5643" stroke="#ff5643" stroke-width="1.51"/><path d="M102,117L262,298L316,78Z" fill="#ff5745" stroke="#ff5745" stroke-width="1.51"/><path d="M1305,1109L1295,950L1179,965Z" fill="#d14d37" stroke="#d14d37" stroke-width="1.51"/><path d="M1179,965L1295,950L1182,786Z" fill="#be291b" stroke="#be291b" stroke-width="1.51"/><path d="M1340,257L1300,88L1182,102Z" fill="#df3d2c" stroke="#df3d2c" stroke-width="1.51"/><path d="M1182,102L1161,-66L994,117Z" fill="#cf4b3d" stroke="#cf4b3d" stroke-width="1.51"/><path d="M462,-90L308,-71L316,78Z" fill="#fd5d4d" stroke="#fd5d4d" stroke-width="1.51"/><path d="M265,980L305,1138L470,1121Z" fill="#fb785f" stroke="#fb785f" stroke-width="1.51"/><path d="M470,1121L305,1138L635,1157Z" fill="#ff8469" stroke="#ff8469" stroke-width="1.51"/><path d="M111,1123L305,1138L265,980Z" fill="#fb7f6a" stroke="#fb7f6a" stroke-width="1.51"/><path d="M978,-51L831,-254L787,-41Z" fill="#b3463b" stroke="#b3463b" stroke-width="1.51"/><path d="M1300,88L1161,-66L1182,102Z" fill="#d94a3b" stroke="#d94a3b" stroke-width="1.51"/><path d="M95,-64L102,117L316,78Z" fill="#ff6757" stroke="#ff6757" stroke-width="1.51"/><path d="M1000,1135L1164,1143L1179,965Z" fill="#cc6855" stroke="#cc6855" stroke-width="1.51"/><path d="M821,1146L1164,1143L1000,1135Z" fill="#c47b6e" stroke="#c47b6e" stroke-width="1.51"/><path d="M635,1157L1164,1143L821,1146Z" fill="#c77e71" stroke="#c77e71" stroke-width="1.51"/><path d="M94,803L130,997L265,980Z" fill="#e74c3b" stroke="#e74c3b" stroke-width="1.51"/><path d="M1492,631L1326,625L1342,792Z" fill="#b43c2d" stroke="#b43c2d" stroke-width="1.51"/><path d="M1492,631L1476,420L1326,625Z" fill="#b84a39" stroke="#b84a39" stroke-width="1.51"/><path d="M1340,257L1509,110L1300,88Z" fill="#ea4834" stroke="#ea4834" stroke-width="1.51"/><path d="M1506,793L1492,631L1342,792Z" fill="#c14b39" stroke="#c14b39" stroke-width="1.51"/><path d="M94,803L-73,949L130,997Z" fill="#df4738" stroke="#df4738" stroke-width="1.51"/><path d="M-72,455L92,590L119,477Z" fill="#ca4f42" stroke="#ca4f42" stroke-width="1.51"/><path d="M-72,455L119,477L86,282Z" fill="#e04e3f" stroke="#e04e3f" stroke-width="1.51"/><path d="M956,-239L831,-254L978,-51Z" fill="#9d3d34" stroke="#9d3d34" stroke-width="1.51"/><path d="M462,-90L429,-234L308,-71Z" fill="#e74a39" stroke="#e74a39" stroke-width="1.51"/><path d="M-60,258L-72,455L86,282Z" fill="#e64736" stroke="#e64736" stroke-width="1.51"/><path d="M831,-254L643,-264L787,-41Z" fill="#b63c2f" stroke="#b63c2f" stroke-width="1.51"/><path d="M-65,595L-37,802L92,590Z" fill="#b5483e" stroke="#b5483e" stroke-width="1.51"/><path d="M1139,-219L956,-239L978,-51Z" fill="#a83d32" stroke="#a83d32" stroke-width="1.51"/><path d="M1515,949L1506,793L1342,792Z" fill="#cf4b35" stroke="#cf4b35" stroke-width="1.51"/><path d="M1164,1143L1305,1109L1179,965Z" fill="#d5644e" stroke="#d5644e" stroke-width="1.51"/><path d="M643,-264L429,-234L607,-78Z" fill="#d23928" stroke="#d23928" stroke-width="1.51"/><path d="M308,-71L95,-64L316,78Z" fill="#ff6758" stroke="#ff6758" stroke-width="1.51"/><path d="M1515,949L1342,792L1295,950Z" fill="#cf3321" stroke="#cf3321" stroke-width="1.51"/><path d="M1686,443L1523,301L1476,420Z" fill="#e96d55" stroke="#e96d55" stroke-width="1.51"/><path d="M-57,84L-60,258L102,117Z" fill="#ef5646" stroke="#ef5646" stroke-width="1.51"/><path d="M102,117L-60,258L86,282Z" fill="#f75543" stroke="#f75543" stroke-width="1.51"/><path d="M1334,-93L1139,-219L1161,-66Z" fill="#c34032" stroke="#c34032" stroke-width="1.51"/><path d="M1476,420L1523,301L1340,257Z" fill="#eb4d34" stroke="#eb4d34" stroke-width="1.51"/><path d="M1640,626L1476,420L1492,631Z" fill="#c06453" stroke="#c06453" stroke-width="1.51"/><path d="M130,997L111,1123L265,980Z" fill="#f5735f" stroke="#f5735f" stroke-width="1.51"/><path d="M-73,949L111,1123L130,997Z" fill="#ee6f5c" stroke="#ee6f5c" stroke-width="1.51"/><path d="M1161,-66L1139,-219L978,-51Z" fill="#ba4438" stroke="#ba4438" stroke-width="1.51"/><path d="M956,-239L1303,-272L831,-254Z" fill="#973127" stroke="#973127" stroke-width="1.51"/><path d="M1334,-93L1161,-66L1300,88Z" fill="#dd4e3f" stroke="#dd4e3f" stroke-width="1.51"/><path d="M258,-227L95,-64L308,-71Z" fill="#e9594b" stroke="#e9594b" stroke-width="1.51"/><path d="M1509,110L1334,-93L1300,88Z" fill="#ea5441" stroke="#ea5441" stroke-width="1.51"/><path d="M429,-234L258,-227L308,-71Z" fill="#dd4939" stroke="#dd4939" stroke-width="1.51"/><path d="M643,-264L258,-227L429,-234Z" fill="#cf3625" stroke="#cf3625" stroke-width="1.51"/><path d="M1523,301L1509,110L1340,257Z" fill="#f2573f" stroke="#f2573f" stroke-width="1.51"/><path d="M1506,793L1640,626L1492,631Z" fill="#c26454" stroke="#c26454" stroke-width="1.51"/><path d="M1305,1109L1515,949L1295,950Z" fill="#dc523a" stroke="#dc523a" stroke-width="1.51"/><path d="M-37,802L-73,949L94,803Z" fill="#cd4335" stroke="#cd4335" stroke-width="1.51"/><path d="M-261,816L-73,949L-37,802Z" fill="#bb3628" stroke="#bb3628" stroke-width="1.51"/><path d="M-261,816L-37,802L-65,595Z" fill="#ad3a2e" stroke="#ad3a2e" stroke-width="1.51"/><path d="M-74,-97L-57,84L95,-64Z" fill="#eb6357" stroke="#eb6357" stroke-width="1.51"/><path d="M95,-64L-57,84L102,117Z" fill="#f76658" stroke="#f76658" stroke-width="1.51"/><path d="M-214,296L-227,442L-72,455Z" fill="#bf3628" stroke="#bf3628" stroke-width="1.51"/><path d="M1645,798L1640,626L1506,793Z" fill="#cd705f" stroke="#cd705f" stroke-width="1.51"/><path d="M1523,301L1651,123L1509,110Z" fill="#fc775f" stroke="#fc775f" stroke-width="1.51"/><path d="M-72,455L-245,594L-65,595Z" fill="#a73d32" stroke="#a73d32" stroke-width="1.51"/><path d="M-214,296L-72,455L-60,258Z" fill="#d53b2b" stroke="#d53b2b" stroke-width="1.51"/><path d="M1515,949L1645,798L1506,793Z" fill="#d9654f" stroke="#d9654f" stroke-width="1.51"/><path d="M-247,130L-214,296L-60,258Z" fill="#d43b2a" stroke="#d43b2a" stroke-width="1.51"/><path d="M1640,626L1686,443L1476,420Z" fill="#d37462" stroke="#d37462" stroke-width="1.51"/><path d="M1845,652L1686,443L1640,626Z" fill="#c88e85" stroke="#c88e85" stroke-width="1.51"/><path d="M-57,84L-247,130L-60,258Z" fill="#dc4938" stroke="#dc4938" stroke-width="1.51"/><path d="M258,-227L104,-212L95,-64Z" fill="#df574a" stroke="#df574a" stroke-width="1.51"/><path d="M-247,130L-245,594L-227,442Z" fill="#b62e20" stroke="#b62e20" stroke-width="1.51"/><path d="M-227,442L-245,594L-72,455Z" fill="#aa372a" stroke="#aa372a" stroke-width="1.51"/><path d="M1164,1143L1497,1133L1305,1109Z" fill="#e6765e" stroke="#e6765e" stroke-width="1.51"/><path d="M1305,1109L1497,1133L1515,949Z" fill="#ea7960" stroke="#ea7960" stroke-width="1.51"/><path d="M1515,949L1692,980L1645,798Z" fill="#e7745c" stroke="#e7745c" stroke-width="1.51"/><path d="M1686,443L1672,275L1523,301Z" fill="#f97e64" stroke="#f97e64" stroke-width="1.51"/><path d="M1490,-254L1303,-272L1334,-93Z" fill="#c23a2a" stroke="#c23a2a" stroke-width="1.51"/><path d="M1139,-219L1303,-272L956,-239Z" fill="#a33124" stroke="#a33124" stroke-width="1.51"/><path d="M831,-254L1303,-272L643,-264Z" fill="#8d3229" stroke="#8d3229" stroke-width="1.51"/><path d="M1334,-93L1303,-272L1139,-219Z" fill="#b93426" stroke="#b93426" stroke-width="1.51"/><path d="M1524,-83L1334,-93L1509,110Z" fill="#f06c59" stroke="#f06c59" stroke-width="1.51"/><path d="M111,1123L-65,1162L305,1138Z" fill="#ff998a" stroke="#ff998a" stroke-width="1.51"/><path d="M305,1138L-65,1162L635,1157Z" fill="#ff947e" stroke="#ff947e" stroke-width="1.51"/><path d="M-73,949L-65,1162L111,1123Z" fill="#e97a68" stroke="#e97a68" stroke-width="1.51"/><path d="M-227,982L-65,1162L-73,949Z" fill="#d25f4b" stroke="#d25f4b" stroke-width="1.51"/><path d="M1651,123L1524,-83L1509,110Z" fill="#fb826e" stroke="#fb826e" stroke-width="1.51"/><path d="M1672,275L1651,123L1523,301Z" fill="#ff8167" stroke="#ff8167" stroke-width="1.51"/><path d="M104,-212L-74,-97L95,-64Z" fill="#df5a4e" stroke="#df5a4e" stroke-width="1.51"/><path d="M-245,594L-261,816L-65,595Z" fill="#9a342a" stroke="#9a342a" stroke-width="1.51"/><path d="M-214,296L-247,130L-227,442Z" fill="#cb2c1d" stroke="#cb2c1d" stroke-width="1.51"/><path d="M-245,594L-247,130L-261,816Z" fill="#9c2f23" stroke="#9c2f23" stroke-width="1.51"/><path d="M-242,-44L-247,130L-57,84Z" fill="#d24c3d" stroke="#d24c3d" stroke-width="1.51"/><path d="M-261,816L-227,982L-73,949Z" fill="#b92c1e" stroke="#b92c1e" stroke-width="1.51"/><path d="M1665,1126L1692,980L1515,949Z" fill="#f39681" stroke="#f39681" stroke-width="1.51"/><path d="M1645,798L1845,652L1640,626Z" fill="#ce8a7e" stroke="#ce8a7e" stroke-width="1.51"/><path d="M1669,-239L1490,-254L1524,-83Z" fill="#d66d5b" stroke="#d66d5b" stroke-width="1.51"/><path d="M1524,-83L1490,-254L1334,-93Z" fill="#d65945" stroke="#d65945" stroke-width="1.51"/><path d="M-74,-97L-242,-44L-57,84Z" fill="#db584b" stroke="#db584b" stroke-width="1.51"/><path d="M104,-212L-57,-247L-74,-97Z" fill="#ca4c40" stroke="#ca4c40" stroke-width="1.51"/><path d="M258,-227L-57,-247L104,-212Z" fill="#d25245" stroke="#d25245" stroke-width="1.51"/><path d="M643,-264L-57,-247L258,-227Z" fill="#ce4233" stroke="#ce4233" stroke-width="1.51"/><path d="M1497,1133L1665,1126L1515,949Z" fill="#f39782" stroke="#f39782" stroke-width="1.51"/><path d="M-250,-243L-242,-44L-74,-97Z" fill="#ba4135" stroke="#ba4135" stroke-width="1.51"/><path d="M1686,443L1826,277L1672,275Z" fill="#ff977f" stroke="#ff977f" stroke-width="1.51"/><path d="M1672,275L1826,277L1651,123Z" fill="#ff9b83" stroke="#ff9b83" stroke-width="1.51"/><path d="M1859,801L1845,652L1645,798Z" fill="#d99588" stroke="#d99588" stroke-width="1.51"/><path d="M1859,801L1645,798L1692,980Z" fill="#e8907c" stroke="#e8907c" stroke-width="1.51"/><path d="M1651,123L1677,-89L1524,-83Z" fill="#fe9585" stroke="#fe9585" stroke-width="1.51"/><path d="M1853,441L1826,277L1686,443Z" fill="#f79c88" stroke="#f79c88" stroke-width="1.51"/><path d="M1845,652L1853,441L1686,443Z" fill="#d9988c" stroke="#d9988c" stroke-width="1.51"/><path d="M-261,816L-227,1161L-227,982Z" fill="#ba422f" stroke="#ba422f" stroke-width="1.51"/><path d="M-227,982L-227,1161L-65,1162Z" fill="#d2705d" stroke="#d2705d" stroke-width="1.51"/><path d="M1814,-90L1677,-89L1651,123Z" fill="#ffac9f" stroke="#ffac9f" stroke-width="1.51"/><path d="M1870,960L1859,801L1692,980Z" fill="#f29680" stroke="#f29680" stroke-width="1.51"/><path d="M1845,652L1859,801L1853,441Z" fill="#c5958e" stroke="#c5958e" stroke-width="1.51"/><path d="M1826,277L1867,111L1651,123Z" fill="#ffa994" stroke="#ffa994" stroke-width="1.51"/><path d="M1853,441L1867,111L1826,277Z" fill="#ffa087" stroke="#ffa087" stroke-width="1.51"/><path d="M1870,960L1867,111L1853,441Z" fill="#db998c" stroke="#db998c" stroke-width="1.51"/><path d="M1817,-229L1669,-239L1677,-89Z" fill="#e29486" stroke="#e29486" stroke-width="1.51"/><path d="M1677,-89L1669,-239L1524,-83Z" fill="#e58573" stroke="#e58573" stroke-width="1.51"/><path d="M1490,-254L1817,-229L1303,-272Z" fill="#c85f4c" stroke="#c85f4c" stroke-width="1.51"/><path d="M1859,801L1870,960L1853,441Z" fill="#d69589" stroke="#d69589" stroke-width="1.51"/><path d="M1833,1122L1870,960L1692,980Z" fill="#f9b7a7" stroke="#f9b7a7" stroke-width="1.51"/><path d="M-57,-247L-250,-243L-74,-97Z" fill="#b63f31" stroke="#b63f31" stroke-width="1.51"/><path d="M-242,-44L-250,-243L-247,130Z" fill="#c14639" stroke="#c14639" stroke-width="1.51"/><path d="M-247,130L-250,-243L-261,816Z" fill="#c73021" stroke="#c73021" stroke-width="1.51"/><path d="M643,-264L-250,-243L-57,-247Z" fill="#cd4d41" stroke="#cd4d41" stroke-width="1.51"/><path d="M1867,111L1814,-90L1651,123Z" fill="#ffb2a4" stroke="#ffb2a4" stroke-width="1.51"/><path d="M1665,1126L1833,1122L1692,980Z" fill="#fbc2b4" stroke="#fbc2b4" stroke-width="1.51"/><path d="M1497,1133L1833,1122L1665,1126Z" fill="#fbc3b5" stroke="#fbc3b5" stroke-width="1.51"/><path d="M1867,111L1817,-229L1814,-90Z" fill="#fbaea3" stroke="#fbaea3" stroke-width="1.51"/><path d="M1814,-90L1817,-229L1677,-89Z" fill="#eea498" stroke="#eea498" stroke-width="1.51"/><path d="M1669,-239L1817,-229L1490,-254Z" fill="#d37e6c" stroke="#d37e6c" stroke-width="1.51"/></svg>