<svg xmlns="http://www.w3.org/2000/svg" width="1440" height="900"><path d="M754,438L776,277L680,333Z" fill="#d03525" stroke="#d03525" stroke-width="1.51"/><path d="M776,277L704,149L680,333Z" fill="#de3827" stroke="#de3827" stroke-width="1.51"/><path d="M680,333L563,468L754,438Z" fill="#ce3626" stroke="#ce3626" stroke-width="1.51"/><path d="M465,399L563,468L680,333Z" fill="#e03322" stroke="#e03322" stroke-width="1.51"/><path d="M754,438L999,483L776,277Z" fill="#b6382a" stroke="#b6382a" stroke-width="1.51"/><path d="M673,594L801,579L754,438Z" fill="#a9392d" stroke="#a9392d" stroke-width="1.51"/><path d="M563,468L673,594L754,438Z" fill="#bd3829" stroke="#bd3829" stroke-width="1.51"/><path d="M776,277L810,97L704,149Z" fill="#d74231" stroke="#d74231" stroke-width="1.51"/><path d="M1028,221L810,97L776,277Z" fill="#c64133" stroke="#c64133" stroke-width="1.51"/><path d="M801,579L999,483L754,438Z" fill="#a0392f" stroke="#a0392f" stroke-width="1.51"/><path d="M563,468L417,681L673,594Z" fill="#bd3729" stroke="#bd3729" stroke-width="1.51"/><path d="M409,211L465,399L680,333Z" fill="#fa2c1b" stroke="#fa2c1b" stroke-width="1.51"/><path d="M999,483L1028,221L776,277Z" fill="#b8382a" stroke="#b8382a" stroke-width="1.51"/><path d="M1028,221L1019,139L810,97Z" fill="#c04538" stroke="#c04538" stroke-width="1.51"/><path d="M704,149L409,211L680,333Z" fill="#f13825" stroke="#f13825" stroke-width="1.51"/><path d="M810,97L756,7L704,149Z" fill="#d84b3c" stroke="#d84b3c" stroke-width="1.51"/><path d="M976,-20L756,7L810,97Z" fill="#ca5045" stroke="#ca5045" stroke-width="1.51"/><path d="M412,166L409,211L704,149Z" fill="#ff3d2a" stroke="#ff3d2a" stroke-width="1.51"/><path d="M801,579L1011,663L999,483Z" fill="#863932" stroke="#863932" stroke-width="1.51"/><path d="M783,880L930,712L801,579Z" fill="#9b372c" stroke="#9b372c" stroke-width="1.51"/><path d="M563,-94L412,166L704,149Z" fill="#f84b38" stroke="#f84b38" stroke-width="1.51"/><path d="M930,712L1011,663L801,579Z" fill="#873831" stroke="#873831" stroke-width="1.51"/><path d="M1175,395L1161,275L1028,221Z" fill="#d03121" stroke="#d03121" stroke-width="1.51"/><path d="M1175,395L1028,221L999,483Z" fill="#bd3527" stroke="#bd3527" stroke-width="1.51"/><path d="M1028,221L1161,275L1019,139Z" fill="#cb3c2d" stroke="#cb3c2d" stroke-width="1.51"/><path d="M1131,698L1175,395L999,483Z" fill="#a0362b" stroke="#a0362b" stroke-width="1.51"/><path d="M1019,139L976,-20L810,97Z" fill="#be4c41" stroke="#be4c41" stroke-width="1.51"/><path d="M1177,-60L976,-20L1019,139Z" fill="#ca4f43" stroke="#ca4f43" stroke-width="1.51"/><path d="M465,399L417,681L563,468Z" fill="#d03828" stroke="#d03828" stroke-width="1.51"/><path d="M673,594L783,880L801,579Z" fill="#a3372c" stroke="#a3372c" stroke-width="1.51"/><path d="M253,507L417,681L465,399Z" fill="#ce4132" stroke="#ce4132" stroke-width="1.51"/><path d="M756,7L563,-94L704,149Z" fill="#e65141" stroke="#e65141" stroke-width="1.51"/><path d="M660,-301L563,-94L756,7Z" fill="#d04434" stroke="#d04434" stroke-width="1.51"/><path d="M417,681L559,820L673,594Z" fill="#c43425" stroke="#c43425" stroke-width="1.51"/><path d="M1011,663L1131,698L999,483Z" fill="#8b372f" stroke="#8b372f" stroke-width="1.51"/><path d="M930,712L1131,698L1011,663Z" fill="#93362d" stroke="#93362d" stroke-width="1.51"/><path d="M1233,771L1131,698L1022,950Z" fill="#ab3024" stroke="#ab3024" stroke-width="1.51"/><path d="M563,-94L364,33L412,166Z" fill="#ff5341" stroke="#ff5341" stroke-width="1.51"/><path d="M412,166L218,335L409,211Z" fill="#ff4531" stroke="#ff4531" stroke-width="1.51"/><path d="M218,335L253,507L465,399Z" fill="#e64433" stroke="#e64433" stroke-width="1.51"/><path d="M559,820L783,880L673,594Z" fill="#ba3426" stroke="#ba3426" stroke-width="1.51"/><path d="M218,335L465,399L409,211Z" fill="#fb3d29" stroke="#fb3d29" stroke-width="1.51"/><path d="M253,507L360,702L417,681Z" fill="#c14336" stroke="#c14336" stroke-width="1.51"/><path d="M417,681L457,865L559,820Z" fill="#d53323" stroke="#d53323" stroke-width="1.51"/><path d="M1161,275L1234,99L1019,139Z" fill="#d23f2f" stroke="#d23f2f" stroke-width="1.51"/><path d="M1175,395L1287,384L1161,275Z" fill="#cd2f20" stroke="#cd2f20" stroke-width="1.51"/><path d="M1328,630L1287,384L1175,395Z" fill="#ba3123" stroke="#ba3123" stroke-width="1.51"/><path d="M81,139L218,335L412,166Z" fill="#ff513e" stroke="#ff513e" stroke-width="1.51"/><path d="M1367,222L1234,99L1161,275Z" fill="#dd3827" stroke="#dd3827" stroke-width="1.51"/><path d="M660,-301L465,-127L563,-94Z" fill="#d63b2b" stroke="#d63b2b" stroke-width="1.51"/><path d="M563,-94L465,-127L364,33Z" fill="#f6503e" stroke="#f6503e" stroke-width="1.51"/><path d="M541,888L646,911L559,820Z" fill="#d52c1d" stroke="#d52c1d" stroke-width="1.51"/><path d="M559,820L646,911L783,880Z" fill="#c82f20" stroke="#c82f20" stroke-width="1.51"/><path d="M457,865L541,888L559,820Z" fill="#dd2b1b" stroke="#dd2b1b" stroke-width="1.51"/><path d="M1234,99L1177,-60L1019,139Z" fill="#d24a3b" stroke="#d24a3b" stroke-width="1.51"/><path d="M1367,222L1259,62L1234,99Z" fill="#e03f2e" stroke="#e03f2e" stroke-width="1.51"/><path d="M1259,62L1177,-60L1234,99Z" fill="#da4b3b" stroke="#da4b3b" stroke-width="1.51"/><path d="M976,-20L918,-234L756,7Z" fill="#b74b41" stroke="#b74b41" stroke-width="1.51"/><path d="M360,702L457,865L417,681Z" fill="#d03a2b" stroke="#d03a2b" stroke-width="1.51"/><path d="M465,-127L342,-75L364,33Z" fill="#f75745" stroke="#f75745" stroke-width="1.51"/><path d="M364,33L81,139L412,166Z" fill="#ff5846" stroke="#ff5846" stroke-width="1.51"/><path d="M1119,-181L918,-234L976,-20Z" fill="#ab4036" stroke="#ab4036" stroke-width="1.51"/><path d="M1287,384L1367,222L1161,275Z" fill="#df2a1a" stroke="#df2a1a" stroke-width="1.51"/><path d="M1351,-135L1119,-181L1177,-60Z" fill="#c34031" stroke="#c34031" stroke-width="1.51"/><path d="M1131,698L1328,630L1175,395Z" fill="#a03429" stroke="#a03429" stroke-width="1.51"/><path d="M1287,384L1440,370L1367,222Z" fill="#e1321f" stroke="#e1321f" stroke-width="1.51"/><path d="M1022,950L1131,698L930,712Z" fill="#9f3328" stroke="#9f3328" stroke-width="1.51"/><path d="M1233,771L1328,630L1131,698Z" fill="#a73125" stroke="#a73125" stroke-width="1.51"/><path d="M360,702L336,839L457,865Z" fill="#d73a2a" stroke="#d73a2a" stroke-width="1.51"/><path d="M487,1089L646,911L541,888Z" fill="#e64029" stroke="#e64029" stroke-width="1.51"/><path d="M58,816L336,839L360,702Z" fill="#d54636" stroke="#d54636" stroke-width="1.51"/><path d="M918,-234L873,-276L756,7Z" fill="#ab3f34" stroke="#ab3f34" stroke-width="1.51"/><path d="M1268,-325L873,-276L918,-234Z" fill="#922e23" stroke="#922e23" stroke-width="1.51"/><path d="M1351,-135L1177,-60L1259,62Z" fill="#d84b3c" stroke="#d84b3c" stroke-width="1.51"/><path d="M1177,-60L1119,-181L976,-20Z" fill="#bf483c" stroke="#bf483c" stroke-width="1.51"/><path d="M783,880L1022,950L930,712Z" fill="#a03328" stroke="#a03328" stroke-width="1.51"/><path d="M814,1024L1022,950L783,880Z" fill="#b23e2f" stroke="#b23e2f" stroke-width="1.51"/><path d="M253,507L125,523L360,702Z" fill="#c34b3e" stroke="#c34b3e" stroke-width="1.51"/><path d="M218,335L125,523L253,507Z" fill="#dd4d3e" stroke="#dd4d3e" stroke-width="1.51"/><path d="M37,290L125,523L218,335Z" fill="#ed5242" stroke="#ed5242" stroke-width="1.51"/><path d="M873,-276L660,-301L756,7Z" fill="#b43b2e" stroke="#b43b2e" stroke-width="1.51"/><path d="M465,-127L375,-220L342,-75Z" fill="#e54939" stroke="#e54939" stroke-width="1.51"/><path d="M646,911L814,1024L783,880Z" fill="#c43828" stroke="#c43828" stroke-width="1.51"/><path d="M638,1185L814,1024L646,911Z" fill="#d95e48" stroke="#d95e48" stroke-width="1.51"/><path d="M487,1089L541,888L457,865Z" fill="#ea3924" stroke="#ea3924" stroke-width="1.51"/><path d="M1328,630L1440,370L1287,384Z" fill="#c43222" stroke="#c43222" stroke-width="1.51"/><path d="M62,-57L81,139L364,33Z" fill="#ff6759" stroke="#ff6759" stroke-width="1.51"/><path d="M660,-301L375,-220L465,-127Z" fill="#d53525" stroke="#d53525" stroke-width="1.51"/><path d="M62,-57L364,33L342,-75Z" fill="#fc6455" stroke="#fc6455" stroke-width="1.51"/><path d="M81,139L37,290L218,335Z" fill="#ff5644" stroke="#ff5644" stroke-width="1.51"/><path d="M125,523L58,816L360,702Z" fill="#c74d41" stroke="#c74d41" stroke-width="1.51"/><path d="M37,290L52,536L125,523Z" fill="#da5144" stroke="#da5144" stroke-width="1.51"/><path d="M1328,630L1484,647L1440,370Z" fill="#b84636" stroke="#b84636" stroke-width="1.51"/><path d="M1233,771L1372,787L1328,630Z" fill="#b22e20" stroke="#b22e20" stroke-width="1.51"/><path d="M1022,950L1245,920L1233,771Z" fill="#b72c1e" stroke="#b72c1e" stroke-width="1.51"/><path d="M1226,961L1245,920L1022,950Z" fill="#bf3625" stroke="#bf3625" stroke-width="1.51"/><path d="M1245,920L1372,787L1233,771Z" fill="#bb2a1d" stroke="#bb2a1d" stroke-width="1.51"/><path d="M1036,1125L1226,961L1022,950Z" fill="#c2513e" stroke="#c2513e" stroke-width="1.51"/><path d="M1245,920L1545,916L1372,787Z" fill="#cc3623" stroke="#cc3623" stroke-width="1.51"/><path d="M1530,121L1259,62L1367,222Z" fill="#ea4a36" stroke="#ea4a36" stroke-width="1.51"/><path d="M1530,121L1351,-135L1259,62Z" fill="#ea5542" stroke="#ea5542" stroke-width="1.51"/><path d="M1119,-181L1268,-325L918,-234Z" fill="#a03125" stroke="#a03125" stroke-width="1.51"/><path d="M814,1024L1036,1125L1022,950Z" fill="#b7594a" stroke="#b7594a" stroke-width="1.51"/><path d="M227,1001L487,1089L457,865Z" fill="#f0523a" stroke="#f0523a" stroke-width="1.51"/><path d="M227,1001L457,865L336,839Z" fill="#e33929" stroke="#e33929" stroke-width="1.51"/><path d="M1372,787L1484,647L1328,630Z" fill="#b53e2e" stroke="#b53e2e" stroke-width="1.51"/><path d="M375,-220L207,-203L342,-75Z" fill="#df4c3d" stroke="#df4c3d" stroke-width="1.51"/><path d="M-55,-257L207,-203L375,-220Z" fill="#d24d3f" stroke="#d24d3f" stroke-width="1.51"/><path d="M638,1185L846,1155L814,1024Z" fill="#d77866" stroke="#d77866" stroke-width="1.51"/><path d="M1566,342L1367,222L1440,370Z" fill="#ef5137" stroke="#ef5137" stroke-width="1.51"/><path d="M1566,342L1530,121L1367,222Z" fill="#f56046" stroke="#f56046" stroke-width="1.51"/><path d="M1588,631L1566,342L1440,370Z" fill="#d9644f" stroke="#d9644f" stroke-width="1.51"/><path d="M207,-203L62,-57L342,-75Z" fill="#eb5c4d" stroke="#eb5c4d" stroke-width="1.51"/><path d="M81,139L-64,227L37,290Z" fill="#f35241" stroke="#f35241" stroke-width="1.51"/><path d="M846,1155L1036,1125L814,1024Z" fill="#bf6f62" stroke="#bf6f62" stroke-width="1.51"/><path d="M-97,465L-77,548L52,536Z" fill="#bb453a" stroke="#bb453a" stroke-width="1.51"/><path d="M-55,49L-64,227L81,139Z" fill="#ee5647" stroke="#ee5647" stroke-width="1.51"/><path d="M58,816L227,1001L336,839Z" fill="#e24635" stroke="#e24635" stroke-width="1.51"/><path d="M487,1089L638,1185L646,911Z" fill="#ed664c" stroke="#ed664c" stroke-width="1.51"/><path d="M334,1135L638,1185L487,1089Z" fill="#ff8267" stroke="#ff8267" stroke-width="1.51"/><path d="M-1,815L58,816L52,536Z" fill="#c34b3f" stroke="#c34b3f" stroke-width="1.51"/><path d="M52,536L58,816L125,523Z" fill="#bd5248" stroke="#bd5248" stroke-width="1.51"/><path d="M62,-57L-55,49L81,139Z" fill="#f46456" stroke="#f46456" stroke-width="1.51"/><path d="M207,-203L86,-161L62,-57Z" fill="#e55d50" stroke="#e55d50" stroke-width="1.51"/><path d="M873,-276L1268,-325L660,-301Z" fill="#862d23" stroke="#862d23" stroke-width="1.51"/><path d="M1351,-135L1268,-325L1119,-181Z" fill="#b43224" stroke="#b43224" stroke-width="1.51"/><path d="M1479,-275L1268,-325L1351,-135Z" fill="#b93222" stroke="#b93222" stroke-width="1.51"/><path d="M-97,465L52,536L37,290Z" fill="#d34a3a" stroke="#d34a3a" stroke-width="1.51"/><path d="M-186,328L-97,465L37,290Z" fill="#d53f30" stroke="#d53f30" stroke-width="1.51"/><path d="M1186,1146L1272,1056L1226,961Z" fill="#d45e48" stroke="#d45e48" stroke-width="1.51"/><path d="M1226,961L1272,1056L1245,920Z" fill="#cd432e" stroke="#cd432e" stroke-width="1.51"/><path d="M1522,790L1588,631L1484,647Z" fill="#c26150" stroke="#c26150" stroke-width="1.51"/><path d="M-64,227L-186,328L37,290Z" fill="#e54130" stroke="#e54130" stroke-width="1.51"/><path d="M-102,-145L-55,49L62,-57Z" fill="#e35d51" stroke="#e35d51" stroke-width="1.51"/><path d="M1484,647L1588,631L1440,370Z" fill="#c05c4b" stroke="#c05c4b" stroke-width="1.51"/><path d="M1522,790L1484,647L1372,787Z" fill="#c24e3b" stroke="#c24e3b" stroke-width="1.51"/><path d="M1545,916L1522,790L1372,787Z" fill="#d0523c" stroke="#d0523c" stroke-width="1.51"/><path d="M1530,121L1571,-107L1351,-135Z" fill="#ef705e" stroke="#ef705e" stroke-width="1.51"/><path d="M1566,342L1619,156L1530,121Z" fill="#fd775f" stroke="#fd775f" stroke-width="1.51"/><path d="M1676,273L1619,156L1566,342Z" fill="#ff8065" stroke="#ff8065" stroke-width="1.51"/><path d="M155,1046L334,1135L227,1001Z" fill="#f97862" stroke="#f97862" stroke-width="1.51"/><path d="M227,1001L334,1135L487,1089Z" fill="#fb765e" stroke="#fb765e" stroke-width="1.51"/><path d="M58,816L155,1046L227,1001Z" fill="#eb5945" stroke="#eb5945" stroke-width="1.51"/><path d="M-77,548L-1,815L52,536Z" fill="#b1483f" stroke="#b1483f" stroke-width="1.51"/><path d="M638,1185L1186,1146L846,1155Z" fill="#c48276" stroke="#c48276" stroke-width="1.51"/><path d="M846,1155L1186,1146L1036,1125Z" fill="#c77b6d" stroke="#c77b6d" stroke-width="1.51"/><path d="M1036,1125L1186,1146L1226,961Z" fill="#cf6652" stroke="#cf6652" stroke-width="1.51"/><path d="M106,1093L155,1046L-98,918Z" fill="#ed6e5b" stroke="#ed6e5b" stroke-width="1.51"/><path d="M1714,432L1676,273L1566,342Z" fill="#f9846b" stroke="#f9846b" stroke-width="1.51"/><path d="M1619,156L1571,-107L1530,121Z" fill="#fc8471" stroke="#fc8471" stroke-width="1.51"/><path d="M1689,-124L1571,-107L1619,156Z" fill="#fd9686" stroke="#fd9686" stroke-width="1.51"/><path d="M-275,174L-186,328L-64,227Z" fill="#d43929" stroke="#d43929" stroke-width="1.51"/><path d="M-97,465L-268,545L-77,548Z" fill="#aa3a2f" stroke="#aa3a2f" stroke-width="1.51"/><path d="M-313,851L-98,918L-1,815Z" fill="#ba3426" stroke="#ba3426" stroke-width="1.51"/><path d="M1588,631L1714,432L1566,342Z" fill="#dc7a67" stroke="#dc7a67" stroke-width="1.51"/><path d="M1522,790L1601,804L1588,631Z" fill="#cc6a57" stroke="#cc6a57" stroke-width="1.51"/><path d="M1545,916L1601,804L1522,790Z" fill="#d7664f" stroke="#d7664f" stroke-width="1.51"/><path d="M1545,916L1245,920L1272,1056Z" fill="#d53e28" stroke="#d53e28" stroke-width="1.51"/><path d="M1571,-107L1479,-275L1351,-135Z" fill="#d25946" stroke="#d25946" stroke-width="1.51"/><path d="M1871,427L1714,432L1850,703Z" fill="#d6988c" stroke="#d6988c" stroke-width="1.51"/><path d="M1497,1120L1545,916L1272,1056Z" fill="#e66d54" stroke="#e66d54" stroke-width="1.51"/><path d="M-186,328L-220,428L-97,465Z" fill="#be3628" stroke="#be3628" stroke-width="1.51"/><path d="M-98,918L155,1046L58,816Z" fill="#de4b39" stroke="#de4b39" stroke-width="1.51"/><path d="M155,1046L106,1093L334,1135Z" fill="#fc8470" stroke="#fc8470" stroke-width="1.51"/><path d="M-98,918L58,816L-1,815Z" fill="#cc4234" stroke="#cc4234" stroke-width="1.51"/><path d="M86,-161L-102,-145L62,-57Z" fill="#dc584c" stroke="#dc584c" stroke-width="1.51"/><path d="M-55,49L-275,174L-64,227Z" fill="#da4838" stroke="#da4838" stroke-width="1.51"/><path d="M-275,174L-268,545L-220,428Z" fill="#b52c1e" stroke="#b52c1e" stroke-width="1.51"/><path d="M-55,-257L-102,-145L86,-161Z" fill="#c74a3d" stroke="#c74a3d" stroke-width="1.51"/><path d="M-55,-257L86,-161L207,-203Z" fill="#d45346" stroke="#d45346" stroke-width="1.51"/><path d="M660,-301L-55,-257L375,-220Z" fill="#cb3d2e" stroke="#cb3d2e" stroke-width="1.51"/><path d="M-313,851L-1,815L-77,548Z" fill="#ab392d" stroke="#ab392d" stroke-width="1.51"/><path d="M1714,432L1797,278L1676,273Z" fill="#ff987f" stroke="#ff987f" stroke-width="1.51"/><path d="M1676,273L1797,278L1619,156Z" fill="#ff957c" stroke="#ff957c" stroke-width="1.51"/><path d="M1571,-107L1666,-236L1479,-275Z" fill="#d46e5b" stroke="#d46e5b" stroke-width="1.51"/><path d="M1871,427L1797,278L1714,432Z" fill="#f99d88" stroke="#f99d88" stroke-width="1.51"/><path d="M-220,428L-268,545L-97,465Z" fill="#aa3428" stroke="#aa3428" stroke-width="1.51"/><path d="M-275,174L-220,428L-186,328Z" fill="#c82d1d" stroke="#c82d1d" stroke-width="1.51"/><path d="M1765,-127L1689,-124L1619,156Z" fill="#ffa496" stroke="#ffa496" stroke-width="1.51"/><path d="M-260,-1L-275,174L-55,49Z" fill="#d0483a" stroke="#d0483a" stroke-width="1.51"/><path d="M-260,-1L-55,49L-102,-145Z" fill="#d65448" stroke="#d65448" stroke-width="1.51"/><path d="M1850,703L1714,432L1588,631Z" fill="#c48c84" stroke="#c48c84" stroke-width="1.51"/><path d="M1887,810L1850,703L1601,804Z" fill="#dc9687" stroke="#dc9687" stroke-width="1.51"/><path d="M1186,1146L1497,1120L1272,1056Z" fill="#e46f57" stroke="#e46f57" stroke-width="1.51"/><path d="M-284,-245L-260,-1L-102,-145Z" fill="#b63e32" stroke="#b63e32" stroke-width="1.51"/><path d="M1689,-124L1666,-236L1571,-107Z" fill="#e38676" stroke="#e38676" stroke-width="1.51"/><path d="M1479,-275L1666,-236L1268,-325Z" fill="#bc4b37" stroke="#bc4b37" stroke-width="1.51"/><path d="M1772,-206L1666,-236L1689,-124Z" fill="#e09182" stroke="#e09182" stroke-width="1.51"/><path d="M1910,122L1765,-127L1619,156Z" fill="#ffb2a3" stroke="#ffb2a3" stroke-width="1.51"/><path d="M1850,703L1588,631L1601,804Z" fill="#cf8375" stroke="#cf8375" stroke-width="1.51"/><path d="M1910,122L1619,156L1797,278Z" fill="#ffa793" stroke="#ffa793" stroke-width="1.51"/><path d="M1729,1000L1601,804L1545,916Z" fill="#e8765e" stroke="#e8765e" stroke-width="1.51"/><path d="M1765,-127L1772,-206L1689,-124Z" fill="#e99e91" stroke="#e99e91" stroke-width="1.51"/><path d="M1910,122L1772,-206L1765,-127Z" fill="#fbaea3" stroke="#fbaea3" stroke-width="1.51"/><path d="M1657,1101L1729,1000L1545,916Z" fill="#f39782" stroke="#f39782" stroke-width="1.51"/><path d="M1497,1120L1657,1101L1545,916Z" fill="#f1927c" stroke="#f1927c" stroke-width="1.51"/><path d="M-98,918L-77,1198L106,1093Z" fill="#e67664" stroke="#e67664" stroke-width="1.51"/><path d="M-313,851L-221,1005L-98,918Z" fill="#b72d1e" stroke="#b72d1e" stroke-width="1.51"/><path d="M1871,427L1910,122L1797,278Z" fill="#ffa188" stroke="#ffa188" stroke-width="1.51"/><path d="M1916,947L1910,122L1871,427Z" fill="#dc998b" stroke="#dc998b" stroke-width="1.51"/><path d="M-268,545L-313,851L-77,548Z" fill="#933228" stroke="#933228" stroke-width="1.51"/><path d="M-275,174L-313,851L-268,545Z" fill="#942c20" stroke="#942c20" stroke-width="1.51"/><path d="M-221,1005L-77,1198L-98,918Z" fill="#d2614d" stroke="#d2614d" stroke-width="1.51"/><path d="M106,1093L-77,1198L334,1135Z" fill="#ff9a8a" stroke="#ff9a8a" stroke-width="1.51"/><path d="M334,1135L-77,1198L638,1185Z" fill="#ff9a85" stroke="#ff9a85" stroke-width="1.51"/><path d="M-55,-257L-284,-245L-102,-145Z" fill="#af392d" stroke="#af392d" stroke-width="1.51"/><path d="M-260,-1L-284,-245L-275,174Z" fill="#c3473b" stroke="#c3473b" stroke-width="1.51"/><path d="M-275,174L-284,-245L-313,851Z" fill="#c1281a" stroke="#c1281a" stroke-width="1.51"/><path d="M660,-301L-284,-245L-55,-257Z" fill="#ca4c3e" stroke="#ca4c3e" stroke-width="1.51"/><path d="M1850,703L1887,810L1871,427Z" fill="#c8958d" stroke="#c8958d" stroke-width="1.51"/><path d="M1729,1000L1887,810L1601,804Z" fill="#ea927e" stroke="#ea927e" stroke-width="1.51"/><path d="M1916,947L1887,810L1729,1000Z" fill="#f39781" stroke="#f39781" stroke-width="1.51"/><path d="M1657,1101L1817,1090L1729,1000Z" fill="#fbbfb1" stroke="#fbbfb1" stroke-width="1.51"/><path d="M1497,1120L1817,1090L1657,1101Z" fill="#fabaaa" stroke="#fabaaa" stroke-width="1.51"/><path d="M-221,1005L-220,1196L-77,1198Z" fill="#d57a68" stroke="#d57a68" stroke-width="1.51"/><path d="M-313,851L-220,1196L-221,1005Z" fill="#bc4c38" stroke="#bc4c38" stroke-width="1.51"/><path d="M1817,1090L1916,947L1729,1000Z" fill="#f9b4a4" stroke="#f9b4a4" stroke-width="1.51"/><path d="M1887,810L1916,947L1871,427Z" fill="#d59589" stroke="#d59589" stroke-width="1.51"/></svg>