<svg xmlns="http://www.w3.org/2000/svg" width="1440" height="900"><path d="M854,447L771,612L952,607Z" fill="#686dff" stroke="#686dff" stroke-width="1.51"/><path d="M952,607L1043,614L854,447Z" fill="#676cff" stroke="#676cff" stroke-width="1.51"/><path d="M1025,703L1043,614L952,607Z" fill="#666aff" stroke="#666aff" stroke-width="1.51"/><path d="M863,822L1025,703L952,607Z" fill="#666aff" stroke="#666aff" stroke-width="1.51"/><path d="M771,612L863,822L952,607Z" fill="#676bff" stroke="#676bff" stroke-width="1.51"/><path d="M771,612L675,824L863,822Z" fill="#676bff" stroke="#676bff" stroke-width="1.51"/><path d="M854,447L569,605L771,612Z" fill="#6a6fff" stroke="#6a6fff" stroke-width="1.51"/><path d="M569,605L575,665L771,612Z" fill="#666bfc" stroke="#666bfc" stroke-width="1.51"/><path d="M863,822L1047,902L1025,703Z" fill="#6468ff" stroke="#6468ff" stroke-width="1.51"/><path d="M675,824L848,865L863,822Z" fill="#6569ff" stroke="#6569ff" stroke-width="1.51"/><path d="M575,665L675,824L771,612Z" fill="#666bfe" stroke="#666bfe" stroke-width="1.51"/><path d="M854,447L683,274L569,605Z" fill="#6a6ffe" stroke="#6a6ffe" stroke-width="1.51"/><path d="M724,111L683,274L900,62Z" fill="#5f62f0" stroke="#5f62f0" stroke-width="1.51"/><path d="M1043,614L1154,334L854,447Z" fill="#686dff" stroke="#686dff" stroke-width="1.51"/><path d="M1274,528L1154,334L1043,614Z" fill="#666bff" stroke="#666bff" stroke-width="1.51"/><path d="M1282,785L1274,528L1043,614Z" fill="#6468ff" stroke="#6468ff" stroke-width="1.51"/><path d="M848,865L1047,902L863,822Z" fill="#6368ff" stroke="#6368ff" stroke-width="1.51"/><path d="M1282,785L1043,614L1025,703Z" fill="#6468ff" stroke="#6468ff" stroke-width="1.51"/><path d="M683,274L478,350L569,605Z" fill="#6669f8" stroke="#6669f8" stroke-width="1.51"/><path d="M252,568L359,851L575,665Z" fill="#5e62f3" stroke="#5e62f3" stroke-width="1.51"/><path d="M683,274L553,147L478,350Z" fill="#6063f0" stroke="#6063f0" stroke-width="1.51"/><path d="M900,62L683,274L854,447Z" fill="#6367f6" stroke="#6367f6" stroke-width="1.51"/><path d="M675,824L669,1040L848,865Z" fill="#6569ff" stroke="#6569ff" stroke-width="1.51"/><path d="M834,1179L1058,1147L1047,902Z" fill="#5f64ff" stroke="#5f64ff" stroke-width="1.51"/><path d="M575,665L566,912L675,824Z" fill="#6367fb" stroke="#6367fb" stroke-width="1.51"/><path d="M359,851L566,912L575,665Z" fill="#6064f7" stroke="#6064f7" stroke-width="1.51"/><path d="M1047,902L1282,785L1025,703Z" fill="#6266ff" stroke="#6266ff" stroke-width="1.51"/><path d="M1154,334L900,62L854,447Z" fill="#6265f6" stroke="#6265f6" stroke-width="1.51"/><path d="M724,111L553,147L683,274Z" fill="#5f62ef" stroke="#5f62ef" stroke-width="1.51"/><path d="M763,-68L553,147L724,111Z" fill="#5b5eeb" stroke="#5b5eeb" stroke-width="1.51"/><path d="M1154,334L1194,139L900,62Z" fill="#5d60f2" stroke="#5d60f2" stroke-width="1.51"/><path d="M1274,528L1263,228L1154,334Z" fill="#6367fb" stroke="#6367fb" stroke-width="1.51"/><path d="M566,912L669,1040L675,824Z" fill="#6266fc" stroke="#6266fc" stroke-width="1.51"/><path d="M1263,228L1194,139L1154,334Z" fill="#5d61f4" stroke="#5d61f4" stroke-width="1.51"/><path d="M1047,902L1290,890L1282,785Z" fill="#6064ff" stroke="#6064ff" stroke-width="1.51"/><path d="M1459,287L1398,249L1274,528Z" fill="#6165fa" stroke="#6165fa" stroke-width="1.51"/><path d="M1274,528L1398,249L1263,228Z" fill="#6165f9" stroke="#6165f9" stroke-width="1.51"/><path d="M1058,1147L1290,890L1047,902Z" fill="#6064ff" stroke="#6064ff" stroke-width="1.51"/><path d="M478,350L252,568L569,605Z" fill="#6266f5" stroke="#6266f5" stroke-width="1.51"/><path d="M553,147L358,309L478,350Z" fill="#5d60ed" stroke="#5d60ed" stroke-width="1.51"/><path d="M252,568L575,665L569,605Z" fill="#6265f6" stroke="#6265f6" stroke-width="1.51"/><path d="M492,1254L640,1255L669,1040Z" fill="#5d61fb" stroke="#5d61fb" stroke-width="1.51"/><path d="M358,309L252,568L478,350Z" fill="#6063f0" stroke="#6063f0" stroke-width="1.51"/><path d="M1462,700L1274,528L1282,785Z" fill="#6266ff" stroke="#6266ff" stroke-width="1.51"/><path d="M1263,228L1360,1L1194,139Z" fill="#595cef" stroke="#595cef" stroke-width="1.51"/><path d="M1290,890L1462,700L1282,785Z" fill="#6064ff" stroke="#6064ff" stroke-width="1.51"/><path d="M1290,890L1448,984L1462,700Z" fill="#5e62ff" stroke="#5e62ff" stroke-width="1.51"/><path d="M834,1179L1047,902L848,865Z" fill="#6166ff" stroke="#6166ff" stroke-width="1.51"/><path d="M669,1040L834,1179L848,865Z" fill="#6267ff" stroke="#6267ff" stroke-width="1.51"/><path d="M640,1255L834,1179L669,1040Z" fill="#6165ff" stroke="#6165ff" stroke-width="1.51"/><path d="M900,62L763,-68L724,111Z" fill="#5b5deb" stroke="#5b5deb" stroke-width="1.51"/><path d="M553,147L340,87L358,309Z" fill="#585be7" stroke="#585be7" stroke-width="1.51"/><path d="M1006,-142L763,-68L900,62Z" fill="#5658e7" stroke="#5658e7" stroke-width="1.51"/><path d="M1194,139L1194,2L900,62Z" fill="#585bec" stroke="#585bec" stroke-width="1.51"/><path d="M1360,1L1194,2L1194,139Z" fill="#5659eb" stroke="#5659eb" stroke-width="1.51"/><path d="M1398,249L1360,1L1263,228Z" fill="#595cf1" stroke="#595cf1" stroke-width="1.51"/><path d="M1590,641L1459,287L1274,528Z" fill="#6368ff" stroke="#6368ff" stroke-width="1.51"/><path d="M399,-15L340,87L553,147Z" fill="#5557e2" stroke="#5557e2" stroke-width="1.51"/><path d="M358,309L129,500L252,568Z" fill="#5e61ee" stroke="#5e61ee" stroke-width="1.51"/><path d="M1194,2L1006,-142L900,62Z" fill="#5658e8" stroke="#5658e8" stroke-width="1.51"/><path d="M1355,1201L1448,984L1290,890Z" fill="#5c60ff" stroke="#5c60ff" stroke-width="1.51"/><path d="M432,-125L553,147L763,-68Z" fill="#5557e3" stroke="#5557e3" stroke-width="1.51"/><path d="M432,-125L399,-15L553,147Z" fill="#5355e0" stroke="#5355e0" stroke-width="1.51"/><path d="M109,282L129,500L358,309Z" fill="#595ce8" stroke="#595ce8" stroke-width="1.51"/><path d="M252,568L60,756L359,851Z" fill="#595ced" stroke="#595ced" stroke-width="1.51"/><path d="M1462,700L1590,641L1274,528Z" fill="#6166ff" stroke="#6166ff" stroke-width="1.51"/><path d="M1650,981L1590,641L1462,700Z" fill="#5e62ff" stroke="#5e62ff" stroke-width="1.51"/><path d="M492,1254L669,1040L566,912Z" fill="#5e62fa" stroke="#5e62fa" stroke-width="1.51"/><path d="M834,1179L1355,1201L1058,1147Z" fill="#5d61ff" stroke="#5d61ff" stroke-width="1.51"/><path d="M1194,2L1197,-167L1006,-142Z" fill="#5154e4" stroke="#5154e4" stroke-width="1.51"/><path d="M1551,226L1360,1L1398,249Z" fill="#595bf1" stroke="#595bf1" stroke-width="1.51"/><path d="M1551,226L1398,249L1459,287Z" fill="#5c5ff5" stroke="#5c5ff5" stroke-width="1.51"/><path d="M184,1072L289,1043L359,851Z" fill="#5659ef" stroke="#5659ef" stroke-width="1.51"/><path d="M359,851L289,1043L566,912Z" fill="#5b5ef4" stroke="#5b5ef4" stroke-width="1.51"/><path d="M1645,608L1551,226L1459,287Z" fill="#5f63fc" stroke="#5f63fc" stroke-width="1.51"/><path d="M1590,641L1645,608L1459,287Z" fill="#6166ff" stroke="#6166ff" stroke-width="1.51"/><path d="M1724,666L1645,608L1590,641Z" fill="#5f63ff" stroke="#5f63ff" stroke-width="1.51"/><path d="M289,1043L492,1254L566,912Z" fill="#5b5ef5" stroke="#5b5ef5" stroke-width="1.51"/><path d="M1360,1L1197,-167L1194,2Z" fill="#5254e6" stroke="#5254e6" stroke-width="1.51"/><path d="M78,73L109,282L340,87Z" fill="#5052dd" stroke="#5052dd" stroke-width="1.51"/><path d="M340,87L109,282L358,309Z" fill="#5658e4" stroke="#5658e4" stroke-width="1.51"/><path d="M109,-17L78,73L340,87Z" fill="#4c4ed8" stroke="#4c4ed8" stroke-width="1.51"/><path d="M591,-213L432,-125L763,-68Z" fill="#5153de" stroke="#5153de" stroke-width="1.51"/><path d="M591,-213L763,-68L768,-281Z" fill="#5254e0" stroke="#5254e0" stroke-width="1.51"/><path d="M768,-281L763,-68L1006,-142Z" fill="#5254e1" stroke="#5254e1" stroke-width="1.51"/><path d="M1650,981L1724,666L1590,641Z" fill="#5d61ff" stroke="#5d61ff" stroke-width="1.51"/><path d="M1058,1147L1355,1201L1290,890Z" fill="#5c61ff" stroke="#5c61ff" stroke-width="1.51"/><path d="M640,1255L1355,1201L834,1179Z" fill="#5e62ff" stroke="#5e62ff" stroke-width="1.51"/><path d="M-7,789L60,756L-156,620Z" fill="#5254e4" stroke="#5254e4" stroke-width="1.51"/><path d="M129,500L60,756L252,568Z" fill="#595beb" stroke="#595beb" stroke-width="1.51"/><path d="M1197,-167L1001,-264L1006,-142Z" fill="#4e51e0" stroke="#4e51e0" stroke-width="1.51"/><path d="M184,1072L223,1095L289,1043Z" fill="#5557ee" stroke="#5557ee" stroke-width="1.51"/><path d="M289,1043L223,1095L492,1254Z" fill="#565af1" stroke="#565af1" stroke-width="1.51"/><path d="M1001,-264L768,-281L1006,-142Z" fill="#4e51de" stroke="#4e51de" stroke-width="1.51"/><path d="M223,1095L-155,1213L492,1254Z" fill="#5154ec" stroke="#5154ec" stroke-width="1.51"/><path d="M31,971L184,1072L359,851Z" fill="#5457ec" stroke="#5457ec" stroke-width="1.51"/><path d="M1645,608L1824,312L1551,226Z" fill="#5f63fc" stroke="#5f63fc" stroke-width="1.51"/><path d="M1650,981L1462,700L1448,984Z" fill="#5c60ff" stroke="#5c60ff" stroke-width="1.51"/><path d="M1625,1165L1650,981L1448,984Z" fill="#595eff" stroke="#595eff" stroke-width="1.51"/><path d="M60,756L31,971L359,851Z" fill="#5558eb" stroke="#5558eb" stroke-width="1.51"/><path d="M-156,620L60,756L129,500Z" fill="#5557e6" stroke="#5557e6" stroke-width="1.51"/><path d="M109,282L-102,400L129,500Z" fill="#5658e5" stroke="#5658e5" stroke-width="1.51"/><path d="M109,-17L340,87L399,-15Z" fill="#4e50da" stroke="#4e50da" stroke-width="1.51"/><path d="M-7,789L31,971L60,756Z" fill="#5254e6" stroke="#5254e6" stroke-width="1.51"/><path d="M1197,-167L1396,-283L1001,-264Z" fill="#4b4dde" stroke="#4b4dde" stroke-width="1.51"/><path d="M1360,1L1467,-152L1197,-167Z" fill="#4f51e4" stroke="#4f51e4" stroke-width="1.51"/><path d="M1551,226L1467,-152L1360,1Z" fill="#5255ea" stroke="#5255ea" stroke-width="1.51"/><path d="M1779,86L1467,-152L1551,226Z" fill="#5255ec" stroke="#5255ec" stroke-width="1.51"/><path d="M219,-199L109,-17L399,-15Z" fill="#494ad4" stroke="#494ad4" stroke-width="1.51"/><path d="M219,-199L399,-15L432,-125Z" fill="#4b4cd7" stroke="#4b4cd7" stroke-width="1.51"/><path d="M-118,74L-102,400L109,282Z" fill="#4e50db" stroke="#4e50db" stroke-width="1.51"/><path d="M-7,789L-97,1031L31,971Z" fill="#4e51e5" stroke="#4e51e5" stroke-width="1.51"/><path d="M-118,74L109,282L78,73Z" fill="#4b4dd7" stroke="#4b4dd7" stroke-width="1.51"/><path d="M1355,1201L1625,1165L1448,984Z" fill="#595dff" stroke="#595dff" stroke-width="1.51"/><path d="M1926,704L1898,448L1724,666Z" fill="#5d61ff" stroke="#5d61ff" stroke-width="1.51"/><path d="M131,-298L219,-199L591,-213Z" fill="#4546cf" stroke="#4546cf" stroke-width="1.51"/><path d="M591,-213L219,-199L432,-125Z" fill="#4a4cd6" stroke="#4a4cd6" stroke-width="1.51"/><path d="M1467,-152L1429,-255L1197,-167Z" fill="#4b4ee0" stroke="#4b4ee0" stroke-width="1.51"/><path d="M1001,-264L1396,-283L768,-281Z" fill="#4b4edc" stroke="#4b4edc" stroke-width="1.51"/><path d="M1429,-255L1396,-283L1197,-167Z" fill="#494cde" stroke="#494cde" stroke-width="1.51"/><path d="M1898,448L1824,312L1645,608Z" fill="#6064ff" stroke="#6064ff" stroke-width="1.51"/><path d="M1467,-152L1765,-213L1429,-255Z" fill="#484adf" stroke="#484adf" stroke-width="1.51"/><path d="M1898,448L1645,608L1724,666Z" fill="#5f63ff" stroke="#5f63ff" stroke-width="1.51"/><path d="M-102,400L-156,620L129,500Z" fill="#5557e4" stroke="#5557e4" stroke-width="1.51"/><path d="M1824,312L1779,86L1551,226Z" fill="#575bf3" stroke="#575bf3" stroke-width="1.51"/><path d="M1824,312L1869,116L1779,86Z" fill="#5458f1" stroke="#5458f1" stroke-width="1.51"/><path d="M1926,704L1724,666L1650,981Z" fill="#5b5fff" stroke="#5b5fff" stroke-width="1.51"/><path d="M-221,775L-97,1031L-7,789Z" fill="#4d50e2" stroke="#4d50e2" stroke-width="1.51"/><path d="M31,971L-97,1031L184,1072Z" fill="#4f52e7" stroke="#4f52e7" stroke-width="1.51"/><path d="M184,1072L-155,1213L223,1095Z" fill="#4f52e8" stroke="#4f52e8" stroke-width="1.51"/><path d="M1979,923L1926,704L1650,981Z" fill="#595dff" stroke="#595dff" stroke-width="1.51"/><path d="M-102,400L-304,472L-156,620Z" fill="#5153df" stroke="#5153df" stroke-width="1.51"/><path d="M-42,-101L-118,74L78,73Z" fill="#4546d0" stroke="#4546d0" stroke-width="1.51"/><path d="M-42,-101L78,73L109,-17Z" fill="#4647d1" stroke="#4647d1" stroke-width="1.51"/><path d="M1625,1165L1808,1098L1650,981Z" fill="#575bff" stroke="#575bff" stroke-width="1.51"/><path d="M2012,464L1869,116L1824,312Z" fill="#595df7" stroke="#595df7" stroke-width="1.51"/><path d="M1779,86L1728,-139L1467,-152Z" fill="#4c4fe6" stroke="#4c4fe6" stroke-width="1.51"/><path d="M1429,-255L1765,-213L1396,-283Z" fill="#4649dd" stroke="#4649dd" stroke-width="1.51"/><path d="M2012,464L1824,312L1898,448Z" fill="#5e62fd" stroke="#5e62fd" stroke-width="1.51"/><path d="M-156,620L-221,775L-7,789Z" fill="#4f51e1" stroke="#4f51e1" stroke-width="1.51"/><path d="M-304,472L-221,775L-156,620Z" fill="#4d50de" stroke="#4d50de" stroke-width="1.51"/><path d="M2024,-22L1728,-139L1779,86Z" fill="#4c4fe8" stroke="#4c4fe8" stroke-width="1.51"/><path d="M219,-199L-42,-101L109,-17Z" fill="#4445ce" stroke="#4445ce" stroke-width="1.51"/><path d="M219,-199L131,-298L-42,-101Z" fill="#4041ca" stroke="#4041ca" stroke-width="1.51"/><path d="M768,-281L131,-298L591,-213Z" fill="#494bd5" stroke="#494bd5" stroke-width="1.51"/><path d="M1396,-283L131,-298L768,-281Z" fill="#4e50db" stroke="#4e50db" stroke-width="1.51"/><path d="M1979,923L2012,464L1926,704Z" fill="#5c60ff" stroke="#5c60ff" stroke-width="1.51"/><path d="M1926,704L2012,464L1898,448Z" fill="#5e62ff" stroke="#5e62ff" stroke-width="1.51"/><path d="M-305,416L-304,472L-102,400Z" fill="#4f51dc" stroke="#4f51dc" stroke-width="1.51"/><path d="M-305,416L-102,400L-315,230Z" fill="#4c4ed8" stroke="#4c4ed8" stroke-width="1.51"/><path d="M-315,230L-102,400L-118,74Z" fill="#4a4bd5" stroke="#4a4bd5" stroke-width="1.51"/><path d="M1808,1098L1979,923L1650,981Z" fill="#575bff" stroke="#575bff" stroke-width="1.51"/><path d="M2024,-22L1779,86L1869,116Z" fill="#5053ec" stroke="#5053ec" stroke-width="1.51"/><path d="M2024,-22L1765,-213L1728,-139Z" fill="#484be3" stroke="#484be3" stroke-width="1.51"/><path d="M1728,-139L1765,-213L1467,-152Z" fill="#484be1" stroke="#484be1" stroke-width="1.51"/><path d="M-221,775L-215,1061L-97,1031Z" fill="#4a4cdf" stroke="#4a4cdf" stroke-width="1.51"/><path d="M-97,1031L-155,1213L184,1072Z" fill="#4b4fe5" stroke="#4b4fe5" stroke-width="1.51"/><path d="M-332,984L-215,1061L-221,775Z" fill="#474add" stroke="#474add" stroke-width="1.51"/><path d="M-215,1061L-155,1213L-97,1031Z" fill="#484be0" stroke="#484be0" stroke-width="1.51"/><path d="M-42,-101L-108,-175L-118,74Z" fill="#3f41c9" stroke="#3f41c9" stroke-width="1.51"/><path d="M131,-298L-108,-175L-42,-101Z" fill="#3d3ec6" stroke="#3d3ec6" stroke-width="1.51"/><path d="M-322,-97L-315,230L-118,74Z" fill="#4141ca" stroke="#4141ca" stroke-width="1.51"/><path d="M-305,416L-315,230L-304,472Z" fill="#4b4dd7" stroke="#4b4dd7" stroke-width="1.51"/><path d="M-215,1061L-332,984L-155,1213Z" fill="#4648dd" stroke="#4648dd" stroke-width="1.51"/><path d="M-304,472L-332,984L-221,775Z" fill="#4a4cdc" stroke="#4a4cdc" stroke-width="1.51"/><path d="M-315,230L-332,984L-304,472Z" fill="#4c4eda" stroke="#4c4eda" stroke-width="1.51"/><path d="M1808,1098L1999,1140L1979,923Z" fill="#565aff" stroke="#565aff" stroke-width="1.51"/><path d="M1979,923L1999,1140L2012,464Z" fill="#595eff" stroke="#595eff" stroke-width="1.51"/><path d="M1625,1165L1999,1140L1808,1098Z" fill="#5459ff" stroke="#5459ff" stroke-width="1.51"/><path d="M1355,1201L1999,1140L1625,1165Z" fill="#565bff" stroke="#565bff" stroke-width="1.51"/><path d="M2012,464L2024,-22L1869,116Z" fill="#5558f2" stroke="#5558f2" stroke-width="1.51"/><path d="M1999,1140L2024,-22L2012,464Z" fill="#5e63ff" stroke="#5e63ff" stroke-width="1.51"/><path d="M-315,230L-322,-97L-332,984Z" fill="#4b4cd6" stroke="#4b4cd6" stroke-width="1.51"/><path d="M-108,-175L-322,-97L-118,74Z" fill="#3c3ec6" stroke="#3c3ec6" stroke-width="1.51"/><path d="M-236,-258L-322,-97L-108,-175Z" fill="#3738c0" stroke="#3738c0" stroke-width="1.51"/><path d="M131,-298L-236,-258L-108,-175Z" fill="#383ac2" stroke="#383ac2" stroke-width="1.51"/><path d="M2024,-22L2023,-208L1765,-213Z" fill="#474ae2" stroke="#474ae2" stroke-width="1.51"/><path d="M1765,-213L2023,-208L1396,-283Z" fill="#4447de" stroke="#4447de" stroke-width="1.51"/></svg>