<svg xmlns="http://www.w3.org/2000/svg" width="1440" height="900"><path d="M783,461L751,305L639,326Z" fill="#686cfa" stroke="#686cfa" stroke-width="1.51"/><path d="M639,326L582,464L783,461Z" fill="#686dfb" stroke="#686dfb" stroke-width="1.51"/><path d="M639,326L509,413L582,464Z" fill="#6569f7" stroke="#6569f7" stroke-width="1.51"/><path d="M444,593L651,597L582,464Z" fill="#6469f9" stroke="#6469f9" stroke-width="1.51"/><path d="M582,464L651,597L783,461Z" fill="#696dfd" stroke="#696dfd" stroke-width="1.51"/><path d="M651,597L754,627L783,461Z" fill="#6a6eff" stroke="#6a6eff" stroke-width="1.51"/><path d="M783,461L948,307L751,305Z" fill="#666afa" stroke="#666afa" stroke-width="1.51"/><path d="M971,403L948,307L783,461Z" fill="#676cfc" stroke="#676cfc" stroke-width="1.51"/><path d="M1018,653L971,403L783,461Z" fill="#686dff" stroke="#686dff" stroke-width="1.51"/><path d="M639,326L406,267L509,413Z" fill="#6164f1" stroke="#6164f1" stroke-width="1.51"/><path d="M751,305L599,154L639,326Z" fill="#6265f3" stroke="#6265f3" stroke-width="1.51"/><path d="M828,105L599,154L751,305Z" fill="#6164f2" stroke="#6164f2" stroke-width="1.51"/><path d="M948,307L828,105L751,305Z" fill="#6165f4" stroke="#6165f4" stroke-width="1.51"/><path d="M599,154L406,267L639,326Z" fill="#5e61ee" stroke="#5e61ee" stroke-width="1.51"/><path d="M509,413L444,593L582,464Z" fill="#6568f7" stroke="#6568f7" stroke-width="1.51"/><path d="M651,597L638,754L754,627Z" fill="#676bfe" stroke="#676bfe" stroke-width="1.51"/><path d="M281,578L444,593L238,474Z" fill="#5e61f0" stroke="#5e61f0" stroke-width="1.51"/><path d="M948,307L982,158L828,105Z" fill="#5f62f2" stroke="#5f62f2" stroke-width="1.51"/><path d="M1176,279L982,158L948,307Z" fill="#5f63f5" stroke="#5f63f5" stroke-width="1.51"/><path d="M479,742L638,754L651,597Z" fill="#6468fa" stroke="#6468fa" stroke-width="1.51"/><path d="M754,627L1018,653L783,461Z" fill="#686dff" stroke="#686dff" stroke-width="1.51"/><path d="M835,822L1018,653L754,627Z" fill="#666aff" stroke="#666aff" stroke-width="1.51"/><path d="M971,403L1176,279L948,307Z" fill="#6367f9" stroke="#6367f9" stroke-width="1.51"/><path d="M599,154L408,124L406,267Z" fill="#595be8" stroke="#595be8" stroke-width="1.51"/><path d="M475,-89L408,124L599,154Z" fill="#5557e3" stroke="#5557e3" stroke-width="1.51"/><path d="M1018,653L1109,502L971,403Z" fill="#676cff" stroke="#676cff" stroke-width="1.51"/><path d="M444,593L479,742L651,597Z" fill="#6266f7" stroke="#6266f7" stroke-width="1.51"/><path d="M406,267L286,294L509,413Z" fill="#5d60ec" stroke="#5d60ec" stroke-width="1.51"/><path d="M444,593L281,578L479,742Z" fill="#5f62f3" stroke="#5f62f3" stroke-width="1.51"/><path d="M408,124L286,294L406,267Z" fill="#585ae6" stroke="#585ae6" stroke-width="1.51"/><path d="M828,105L590,-95L599,154Z" fill="#5a5de9" stroke="#5a5de9" stroke-width="1.51"/><path d="M982,158L848,-25L828,105Z" fill="#5b5dec" stroke="#5b5dec" stroke-width="1.51"/><path d="M638,754L835,822L754,627Z" fill="#676bff" stroke="#676bff" stroke-width="1.51"/><path d="M755,944L835,822L638,754Z" fill="#666aff" stroke="#666aff" stroke-width="1.51"/><path d="M238,474L444,593L509,413Z" fill="#6164f3" stroke="#6164f3" stroke-width="1.51"/><path d="M286,294L238,474L509,413Z" fill="#5e61ee" stroke="#5e61ee" stroke-width="1.51"/><path d="M982,158L986,-97L848,-25Z" fill="#575ae9" stroke="#575ae9" stroke-width="1.51"/><path d="M1109,502L1176,279L971,403Z" fill="#6569fc" stroke="#6569fc" stroke-width="1.51"/><path d="M835,822L985,805L1018,653Z" fill="#6469ff" stroke="#6469ff" stroke-width="1.51"/><path d="M1018,653L1158,604L1109,502Z" fill="#656aff" stroke="#656aff" stroke-width="1.51"/><path d="M1342,426L1311,240L1176,279Z" fill="#6064f8" stroke="#6064f8" stroke-width="1.51"/><path d="M1148,747L1158,604L1018,653Z" fill="#6468ff" stroke="#6468ff" stroke-width="1.51"/><path d="M848,-25L590,-95L828,105Z" fill="#585be8" stroke="#585be8" stroke-width="1.51"/><path d="M408,124L324,48L286,294Z" fill="#5457e1" stroke="#5457e1" stroke-width="1.51"/><path d="M286,294L111,430L238,474Z" fill="#5a5ce9" stroke="#5a5ce9" stroke-width="1.51"/><path d="M475,-89L324,48L408,124Z" fill="#5153de" stroke="#5153de" stroke-width="1.51"/><path d="M590,-95L475,-89L599,154Z" fill="#5456e1" stroke="#5456e1" stroke-width="1.51"/><path d="M600,971L755,944L638,754Z" fill="#6367fd" stroke="#6367fd" stroke-width="1.51"/><path d="M835,822L961,1009L985,805Z" fill="#6367ff" stroke="#6367ff" stroke-width="1.51"/><path d="M1206,943L1148,747L985,805Z" fill="#6166ff" stroke="#6166ff" stroke-width="1.51"/><path d="M985,805L1148,747L1018,653Z" fill="#6468ff" stroke="#6468ff" stroke-width="1.51"/><path d="M848,-25L667,-210L590,-95Z" fill="#5457e2" stroke="#5457e2" stroke-width="1.51"/><path d="M1205,52L986,-97L982,158Z" fill="#5759ea" stroke="#5759ea" stroke-width="1.51"/><path d="M486,954L600,971L638,754Z" fill="#6064f9" stroke="#6064f9" stroke-width="1.51"/><path d="M281,578L344,836L479,742Z" fill="#5c5ff1" stroke="#5c5ff1" stroke-width="1.51"/><path d="M171,758L344,836L281,578Z" fill="#595cee" stroke="#595cee" stroke-width="1.51"/><path d="M158,119L153,255L286,294Z" fill="#5354e0" stroke="#5354e0" stroke-width="1.51"/><path d="M238,474L83,645L281,578Z" fill="#5a5ceb" stroke="#5a5ceb" stroke-width="1.51"/><path d="M486,954L638,754L479,742Z" fill="#6064f8" stroke="#6064f8" stroke-width="1.51"/><path d="M153,255L111,430L286,294Z" fill="#5658e4" stroke="#5658e4" stroke-width="1.51"/><path d="M1176,279L1205,52L982,158Z" fill="#5b5ef0" stroke="#5b5ef0" stroke-width="1.51"/><path d="M1311,240L1205,52L1176,279Z" fill="#5b5ef2" stroke="#5b5ef2" stroke-width="1.51"/><path d="M1176,279L1109,502L1342,426Z" fill="#6468fd" stroke="#6468fd" stroke-width="1.51"/><path d="M344,836L486,954L479,742Z" fill="#5d60f4" stroke="#5d60f4" stroke-width="1.51"/><path d="M590,-95L432,-223L475,-89Z" fill="#4d4ed9" stroke="#4d4ed9" stroke-width="1.51"/><path d="M798,-232L667,-210L848,-25Z" fill="#5255e1" stroke="#5255e1" stroke-width="1.51"/><path d="M153,255L-4,327L111,430Z" fill="#5356e1" stroke="#5356e1" stroke-width="1.51"/><path d="M324,48L158,119L286,294Z" fill="#5153de" stroke="#5153de" stroke-width="1.51"/><path d="M251,-51L158,119L324,48Z" fill="#4c4ed8" stroke="#4c4ed8" stroke-width="1.51"/><path d="M1342,426L1109,502L1158,604Z" fill="#6569ff" stroke="#6569ff" stroke-width="1.51"/><path d="M968,-215L798,-232L848,-25Z" fill="#5153e0" stroke="#5153e0" stroke-width="1.51"/><path d="M968,-215L848,-25L986,-97Z" fill="#5254e3" stroke="#5254e3" stroke-width="1.51"/><path d="M1372,610L1342,426L1158,604Z" fill="#6368ff" stroke="#6368ff" stroke-width="1.51"/><path d="M475,-89L251,-51L324,48Z" fill="#4d4ed9" stroke="#4d4ed9" stroke-width="1.51"/><path d="M432,-223L251,-51L475,-89Z" fill="#4a4cd6" stroke="#4a4cd6" stroke-width="1.51"/><path d="M344,836L258,921L486,954Z" fill="#5a5cf1" stroke="#5a5cf1" stroke-width="1.51"/><path d="M83,645L171,758L281,578Z" fill="#585aea" stroke="#585aea" stroke-width="1.51"/><path d="M1118,-256L968,-215L986,-97Z" fill="#4e50df" stroke="#4e50df" stroke-width="1.51"/><path d="M808,1133L961,1009L755,944Z" fill="#6165ff" stroke="#6165ff" stroke-width="1.51"/><path d="M755,944L961,1009L835,822Z" fill="#6367ff" stroke="#6367ff" stroke-width="1.51"/><path d="M111,430L83,645L238,474Z" fill="#595ce9" stroke="#595ce9" stroke-width="1.51"/><path d="M798,-232L432,-223L667,-210Z" fill="#4e4fda" stroke="#4e4fda" stroke-width="1.51"/><path d="M667,-210L432,-223L590,-95Z" fill="#4d4fda" stroke="#4d4fda" stroke-width="1.51"/><path d="M1205,52L1183,-96L986,-97Z" fill="#5355e6" stroke="#5355e6" stroke-width="1.51"/><path d="M1309,-54L1183,-96L1205,52Z" fill="#5254e7" stroke="#5254e7" stroke-width="1.51"/><path d="M171,758L258,921L344,836Z" fill="#575aed" stroke="#575aed" stroke-width="1.51"/><path d="M486,954L597,1100L600,971Z" fill="#5e62f9" stroke="#5e62f9" stroke-width="1.51"/><path d="M123,931L258,921L171,758Z" fill="#5557eb" stroke="#5557eb" stroke-width="1.51"/><path d="M1314,785L1372,610L1158,604Z" fill="#6266ff" stroke="#6266ff" stroke-width="1.51"/><path d="M1314,785L1158,604L1148,747Z" fill="#6266ff" stroke="#6266ff" stroke-width="1.51"/><path d="M109,-205L144,-17L251,-51Z" fill="#4545cf" stroke="#4545cf" stroke-width="1.51"/><path d="M251,-51L144,-17L158,119Z" fill="#4a4bd5" stroke="#4a4bd5" stroke-width="1.51"/><path d="M-48,133L-4,327L153,255Z" fill="#4e50db" stroke="#4e50db" stroke-width="1.51"/><path d="M111,430L-74,416L83,645Z" fill="#5659e5" stroke="#5659e5" stroke-width="1.51"/><path d="M1311,240L1333,61L1205,52Z" fill="#575aee" stroke="#575aee" stroke-width="1.51"/><path d="M1522,126L1333,61L1311,240Z" fill="#575aef" stroke="#575aef" stroke-width="1.51"/><path d="M1459,406L1311,240L1342,426Z" fill="#6064fa" stroke="#6064fa" stroke-width="1.51"/><path d="M600,971L597,1100L755,944Z" fill="#6165fd" stroke="#6165fd" stroke-width="1.51"/><path d="M442,1092L597,1100L486,954Z" fill="#5c60f7" stroke="#5c60f7" stroke-width="1.51"/><path d="M-48,133L153,255L158,119Z" fill="#4d4ed9" stroke="#4d4ed9" stroke-width="1.51"/><path d="M1206,943L1314,785L1148,747Z" fill="#6064ff" stroke="#6064ff" stroke-width="1.51"/><path d="M961,1009L1206,943L985,805Z" fill="#6165ff" stroke="#6165ff" stroke-width="1.51"/><path d="M961,1009L1172,1085L1206,943Z" fill="#5e63ff" stroke="#5e63ff" stroke-width="1.51"/><path d="M597,1100L808,1133L755,944Z" fill="#6266ff" stroke="#6266ff" stroke-width="1.51"/><path d="M258,921L442,1092L486,954Z" fill="#5a5df2" stroke="#5a5df2" stroke-width="1.51"/><path d="M597,1100L339,1186L808,1133Z" fill="#5d61fa" stroke="#5d61fa" stroke-width="1.51"/><path d="M1333,61L1309,-54L1205,52Z" fill="#5356e9" stroke="#5356e9" stroke-width="1.51"/><path d="M1183,-96L1118,-256L986,-97Z" fill="#4e51e1" stroke="#4e51e1" stroke-width="1.51"/><path d="M1452,652L1459,406L1372,610Z" fill="#6266ff" stroke="#6266ff" stroke-width="1.51"/><path d="M1372,610L1459,406L1342,426Z" fill="#6368ff" stroke="#6368ff" stroke-width="1.51"/><path d="M1333,61L1518,-111L1309,-54Z" fill="#5052e6" stroke="#5052e6" stroke-width="1.51"/><path d="M798,-232L256,-278L432,-223Z" fill="#494ad4" stroke="#494ad4" stroke-width="1.51"/><path d="M968,-215L1118,-256L798,-232Z" fill="#4c4fdd" stroke="#4c4fdd" stroke-width="1.51"/><path d="M1270,-225L1118,-256L1183,-96Z" fill="#4b4edf" stroke="#4b4edf" stroke-width="1.51"/><path d="M808,1133L966,1120L961,1009Z" fill="#5f64ff" stroke="#5f64ff" stroke-width="1.51"/><path d="M-63,805L123,931L171,758Z" fill="#5254e7" stroke="#5254e7" stroke-width="1.51"/><path d="M-4,327L-74,416L111,430Z" fill="#5356e1" stroke="#5356e1" stroke-width="1.51"/><path d="M-265,323L-74,416L-4,327Z" fill="#4e50db" stroke="#4e50db" stroke-width="1.51"/><path d="M1314,785L1452,652L1372,610Z" fill="#6065ff" stroke="#6065ff" stroke-width="1.51"/><path d="M1448,782L1452,652L1314,785Z" fill="#5f64ff" stroke="#5f64ff" stroke-width="1.51"/><path d="M258,921L339,1186L442,1092Z" fill="#575af1" stroke="#575af1" stroke-width="1.51"/><path d="M-63,805L171,758L83,645Z" fill="#5356e6" stroke="#5356e6" stroke-width="1.51"/><path d="M144,-17L-48,133L158,119Z" fill="#494ad4" stroke="#494ad4" stroke-width="1.51"/><path d="M144,-17L-83,-41L-48,133Z" fill="#4445ce" stroke="#4445ce" stroke-width="1.51"/><path d="M432,-223L256,-278L251,-51Z" fill="#4546d0" stroke="#4546d0" stroke-width="1.51"/><path d="M1118,-256L256,-278L798,-232Z" fill="#4f51dc" stroke="#4f51dc" stroke-width="1.51"/><path d="M1459,406L1524,301L1311,240Z" fill="#5e62f8" stroke="#5e62f8" stroke-width="1.51"/><path d="M1687,455L1524,301L1459,406Z" fill="#5f63fc" stroke="#5f63fc" stroke-width="1.51"/><path d="M-74,416L-81,641L83,645Z" fill="#5355e3" stroke="#5355e3" stroke-width="1.51"/><path d="M966,1120L1172,1085L961,1009Z" fill="#5e63ff" stroke="#5e63ff" stroke-width="1.51"/><path d="M1444,982L1448,782L1314,785Z" fill="#5e62ff" stroke="#5e62ff" stroke-width="1.51"/><path d="M1702,292L1620,100L1524,301Z" fill="#585bf4" stroke="#585bf4" stroke-width="1.51"/><path d="M1283,1007L1314,785L1206,943Z" fill="#5e62ff" stroke="#5e62ff" stroke-width="1.51"/><path d="M1309,-54L1270,-225L1183,-96Z" fill="#4e50e2" stroke="#4e50e2" stroke-width="1.51"/><path d="M1518,-111L1270,-225L1309,-54Z" fill="#4c4fe2" stroke="#4c4fe2" stroke-width="1.51"/><path d="M1172,1085L1283,1007L1206,943Z" fill="#5d61ff" stroke="#5d61ff" stroke-width="1.51"/><path d="M256,-278L109,-205L251,-51Z" fill="#4243cc" stroke="#4243cc" stroke-width="1.51"/><path d="M1524,301L1522,126L1311,240Z" fill="#5a5df3" stroke="#5a5df3" stroke-width="1.51"/><path d="M81,1181L339,1186L258,921Z" fill="#5255ec" stroke="#5255ec" stroke-width="1.51"/><path d="M442,1092L339,1186L597,1100Z" fill="#595cf5" stroke="#595cf5" stroke-width="1.51"/><path d="M808,1133L1371,1173L966,1120Z" fill="#5d61ff" stroke="#5d61ff" stroke-width="1.51"/><path d="M-81,641L-63,805L83,645Z" fill="#5153e3" stroke="#5153e3" stroke-width="1.51"/><path d="M123,931L81,1181L258,921Z" fill="#5154e9" stroke="#5154e9" stroke-width="1.51"/><path d="M-48,133L-265,323L-4,327Z" fill="#4b4cd6" stroke="#4b4cd6" stroke-width="1.51"/><path d="M-74,416L-282,471L-81,641Z" fill="#5052de" stroke="#5052de" stroke-width="1.51"/><path d="M109,-205L-83,-41L144,-17Z" fill="#4142cb" stroke="#4142cb" stroke-width="1.51"/><path d="M1283,1007L1444,982L1314,785Z" fill="#5d61ff" stroke="#5d61ff" stroke-width="1.51"/><path d="M1687,455L1459,406L1452,652Z" fill="#6165ff" stroke="#6165ff" stroke-width="1.51"/><path d="M1457,1110L1444,982L1283,1007Z" fill="#5b5fff" stroke="#5b5fff" stroke-width="1.51"/><path d="M1522,126L1518,-111L1333,61Z" fill="#5154e9" stroke="#5154e9" stroke-width="1.51"/><path d="M1522,126L1620,100L1518,-111Z" fill="#5154ea" stroke="#5154ea" stroke-width="1.51"/><path d="M1524,301L1620,100L1522,126Z" fill="#575af1" stroke="#575af1" stroke-width="1.51"/><path d="M1687,455L1452,652L1714,593Z" fill="#6063ff" stroke="#6063ff" stroke-width="1.51"/><path d="M-255,137L-265,323L-48,133Z" fill="#4546d0" stroke="#4546d0" stroke-width="1.51"/><path d="M-81,641L-204,804L-63,805Z" fill="#4d4fe0" stroke="#4d4fe0" stroke-width="1.51"/><path d="M1714,593L1452,652L1696,742Z" fill="#5e62ff" stroke="#5e62ff" stroke-width="1.51"/><path d="M-265,323L-282,471L-74,416Z" fill="#4d4fda" stroke="#4d4fda" stroke-width="1.51"/><path d="M1687,455L1702,292L1524,301Z" fill="#5d61fa" stroke="#5d61fa" stroke-width="1.51"/><path d="M-265,323L-255,137L-282,471Z" fill="#4749d3" stroke="#4749d3" stroke-width="1.51"/><path d="M-83,-41L-255,137L-48,133Z" fill="#4243cc" stroke="#4243cc" stroke-width="1.51"/><path d="M-271,633L-204,804L-81,641Z" fill="#4c4edd" stroke="#4c4edd" stroke-width="1.51"/><path d="M-40,1130L81,1181L123,931Z" fill="#4c50e6" stroke="#4c50e6" stroke-width="1.51"/><path d="M109,-205L-17,-297L-83,-41Z" fill="#3b3dc4" stroke="#3b3dc4" stroke-width="1.51"/><path d="M-83,-41L-250,-93L-255,137Z" fill="#3c3ec6" stroke="#3c3ec6" stroke-width="1.51"/><path d="M256,-278L-17,-297L109,-205Z" fill="#3b3dc5" stroke="#3b3dc5" stroke-width="1.51"/><path d="M1118,-256L-17,-297L256,-278Z" fill="#4547d1" stroke="#4547d1" stroke-width="1.51"/><path d="M-85,1013L123,931L-63,805Z" fill="#4d50e3" stroke="#4d50e3" stroke-width="1.51"/><path d="M-231,964L-85,1013L-63,805Z" fill="#4a4cdf" stroke="#4a4cdf" stroke-width="1.51"/><path d="M-282,471L-271,633L-81,641Z" fill="#4d4fdc" stroke="#4d4fdc" stroke-width="1.51"/><path d="M1696,742L1452,652L1448,782Z" fill="#5e62ff" stroke="#5e62ff" stroke-width="1.51"/><path d="M1172,1085L1371,1173L1283,1007Z" fill="#5b60ff" stroke="#5b60ff" stroke-width="1.51"/><path d="M966,1120L1371,1173L1172,1085Z" fill="#5c60ff" stroke="#5c60ff" stroke-width="1.51"/><path d="M339,1186L1371,1173L808,1133Z" fill="#5f63ff" stroke="#5f63ff" stroke-width="1.51"/><path d="M1687,455L1851,315L1702,292Z" fill="#5b5ffa" stroke="#5b5ffa" stroke-width="1.51"/><path d="M1696,742L1448,782L1444,982Z" fill="#5c61ff" stroke="#5c61ff" stroke-width="1.51"/><path d="M1371,1173L1457,1110L1283,1007Z" fill="#5a5eff" stroke="#5a5eff" stroke-width="1.51"/><path d="M1717,1019L1696,742L1444,982Z" fill="#5a5eff" stroke="#5a5eff" stroke-width="1.51"/><path d="M-269,1126L-40,1130L-85,1013Z" fill="#4649df" stroke="#4649df" stroke-width="1.51"/><path d="M-85,1013L-40,1130L123,931Z" fill="#4c4fe4" stroke="#4c4fe4" stroke-width="1.51"/><path d="M1663,-225L1550,-262L1518,-111Z" fill="#4649de" stroke="#4649de" stroke-width="1.51"/><path d="M1518,-111L1550,-262L1270,-225Z" fill="#484bde" stroke="#484bde" stroke-width="1.51"/><path d="M1270,-225L1550,-262L1118,-256Z" fill="#484adc" stroke="#484adc" stroke-width="1.51"/><path d="M1118,-256L1550,-262L-17,-297Z" fill="#4c4eda" stroke="#4c4eda" stroke-width="1.51"/><path d="M1686,-112L1518,-111L1620,100Z" fill="#4c50e6" stroke="#4c50e6" stroke-width="1.51"/><path d="M-255,-210L-250,-93L-83,-41Z" fill="#3739c1" stroke="#3739c1" stroke-width="1.51"/><path d="M-255,137L-255,-210L-282,471Z" fill="#4041ca" stroke="#4041ca" stroke-width="1.51"/><path d="M-271,633L-231,964L-204,804Z" fill="#484bdb" stroke="#484bdb" stroke-width="1.51"/><path d="M-204,804L-231,964L-63,805Z" fill="#494cde" stroke="#494cde" stroke-width="1.51"/><path d="M1851,145L1620,100L1702,292Z" fill="#5458f1" stroke="#5458f1" stroke-width="1.51"/><path d="M1851,145L1686,-112L1620,100Z" fill="#4f52ea" stroke="#4f52ea" stroke-width="1.51"/><path d="M1686,-112L1663,-225L1518,-111Z" fill="#474ae1" stroke="#474ae1" stroke-width="1.51"/><path d="M-17,-297L-255,-210L-83,-41Z" fill="#3739c0" stroke="#3739c0" stroke-width="1.51"/><path d="M-250,-93L-255,-210L-255,137Z" fill="#3839c1" stroke="#3839c1" stroke-width="1.51"/><path d="M1880,449L1851,315L1687,455Z" fill="#5e62fd" stroke="#5e62fd" stroke-width="1.51"/><path d="M1686,-112L1831,-187L1663,-225Z" fill="#4548e0" stroke="#4548e0" stroke-width="1.51"/><path d="M1880,449L1687,455L1714,593Z" fill="#5f63ff" stroke="#5f63ff" stroke-width="1.51"/><path d="M1851,315L1851,145L1702,292Z" fill="#575bf5" stroke="#575bf5" stroke-width="1.51"/><path d="M1851,315L1880,449L1851,145Z" fill="#595df7" stroke="#595df7" stroke-width="1.51"/><path d="M1895,623L1880,449L1714,593Z" fill="#5e62ff" stroke="#5e62ff" stroke-width="1.51"/><path d="M1696,742L1895,623L1714,593Z" fill="#5c61ff" stroke="#5c61ff" stroke-width="1.51"/><path d="M1457,1110L1717,1019L1444,982Z" fill="#595dff" stroke="#595dff" stroke-width="1.51"/><path d="M1692,1134L1717,1019L1457,1110Z" fill="#575bff" stroke="#575bff" stroke-width="1.51"/><path d="M1857,842L1895,623L1696,742Z" fill="#5b5fff" stroke="#5b5fff" stroke-width="1.51"/><path d="M-231,964L-269,1126L-85,1013Z" fill="#4548dd" stroke="#4548dd" stroke-width="1.51"/><path d="M-40,1130L-269,1126L81,1181Z" fill="#474be1" stroke="#474be1" stroke-width="1.51"/><path d="M-271,633L-269,1126L-231,964Z" fill="#4648da" stroke="#4648da" stroke-width="1.51"/><path d="M-282,471L-269,1126L-271,633Z" fill="#484bd9" stroke="#484bd9" stroke-width="1.51"/><path d="M1717,1019L1857,842L1696,742Z" fill="#595dff" stroke="#595dff" stroke-width="1.51"/><path d="M1371,1173L1692,1134L1457,1110Z" fill="#575cff" stroke="#575cff" stroke-width="1.51"/><path d="M1869,971L1857,842L1717,1019Z" fill="#575cff" stroke="#575cff" stroke-width="1.51"/><path d="M1875,-111L1851,145L1880,449Z" fill="#5357f0" stroke="#5357f0" stroke-width="1.51"/><path d="M1875,-111L1686,-112L1851,145Z" fill="#4b4ee7" stroke="#4b4ee7" stroke-width="1.51"/><path d="M1875,-111L1831,-187L1686,-112Z" fill="#4649e1" stroke="#4649e1" stroke-width="1.51"/><path d="M1663,-225L1831,-187L1550,-262Z" fill="#4347dd" stroke="#4347dd" stroke-width="1.51"/><path d="M1895,623L1875,-111L1880,449Z" fill="#5a5ef9" stroke="#5a5ef9" stroke-width="1.51"/><path d="M1827,1135L1869,971L1717,1019Z" fill="#565aff" stroke="#565aff" stroke-width="1.51"/><path d="M1857,842L1869,971L1895,623Z" fill="#595eff" stroke="#595eff" stroke-width="1.51"/><path d="M1692,1134L1827,1135L1717,1019Z" fill="#5559ff" stroke="#5559ff" stroke-width="1.51"/><path d="M1371,1173L1827,1135L1692,1134Z" fill="#565aff" stroke="#565aff" stroke-width="1.51"/></svg>