<svg xmlns="http://www.w3.org/2000/svg" width="1440" height="900"><path d="M732,456L749,396L636,441Z" fill="#6a6ffd" stroke="#6a6ffd" stroke-width="1.51"/><path d="M636,441L704,594L732,456Z" fill="#696efe" stroke="#696efe" stroke-width="1.51"/><path d="M732,456L1047,339L749,396Z" fill="#686dfc" stroke="#686dfc" stroke-width="1.51"/><path d="M636,441L487,539L704,594Z" fill="#676bfb" stroke="#676bfb" stroke-width="1.51"/><path d="M636,441L386,437L487,539Z" fill="#6568f7" stroke="#6568f7" stroke-width="1.51"/><path d="M523,48L386,437L636,441Z" fill="#6064f1" stroke="#6064f1" stroke-width="1.51"/><path d="M411,853L590,729L487,539Z" fill="#6165f7" stroke="#6165f7" stroke-width="1.51"/><path d="M487,539L590,729L704,594Z" fill="#6569fa" stroke="#6569fa" stroke-width="1.51"/><path d="M749,396L523,48L636,441Z" fill="#6367f5" stroke="#6367f5" stroke-width="1.51"/><path d="M1111,622L1047,339L732,456Z" fill="#686dff" stroke="#686dff" stroke-width="1.51"/><path d="M1111,622L732,456L704,594Z" fill="#686dff" stroke="#686dff" stroke-width="1.51"/><path d="M1047,339L871,94L749,396Z" fill="#6367f7" stroke="#6367f7" stroke-width="1.51"/><path d="M871,94L523,48L749,396Z" fill="#6265f2" stroke="#6265f2" stroke-width="1.51"/><path d="M523,48L305,179L386,437Z" fill="#5a5de9" stroke="#5a5de9" stroke-width="1.51"/><path d="M551,-72L503,5L523,48Z" fill="#5557e3" stroke="#5557e3" stroke-width="1.51"/><path d="M503,5L305,179L523,48Z" fill="#5658e4" stroke="#5658e4" stroke-width="1.51"/><path d="M871,94L551,-72L523,48Z" fill="#5a5ce9" stroke="#5a5ce9" stroke-width="1.51"/><path d="M1073,29L903,10L871,94Z" fill="#5a5dec" stroke="#5a5dec" stroke-width="1.51"/><path d="M892,854L1111,622L704,594Z" fill="#666bff" stroke="#666bff" stroke-width="1.51"/><path d="M729,918L892,854L704,594Z" fill="#666bff" stroke="#666bff" stroke-width="1.51"/><path d="M1047,339L1073,29L871,94Z" fill="#5d61f1" stroke="#5d61f1" stroke-width="1.51"/><path d="M1111,622L1174,534L1047,339Z" fill="#676bff" stroke="#676bff" stroke-width="1.51"/><path d="M234,-166L100,149L305,179Z" fill="#4e50da" stroke="#4e50da" stroke-width="1.51"/><path d="M903,10L551,-72L871,94Z" fill="#5b5eeb" stroke="#5b5eeb" stroke-width="1.51"/><path d="M590,729L729,918L704,594Z" fill="#666afe" stroke="#666afe" stroke-width="1.51"/><path d="M305,179L195,278L386,437Z" fill="#5a5ce8" stroke="#5a5ce8" stroke-width="1.51"/><path d="M222,710L411,853L487,539Z" fill="#5e61f2" stroke="#5e61f2" stroke-width="1.51"/><path d="M590,729L509,987L729,918Z" fill="#6367fb" stroke="#6367fb" stroke-width="1.51"/><path d="M100,149L195,278L305,179Z" fill="#5355e0" stroke="#5355e0" stroke-width="1.51"/><path d="M190,618L487,539L386,437Z" fill="#6063f1" stroke="#6063f1" stroke-width="1.51"/><path d="M195,278L190,618L386,437Z" fill="#5e61ed" stroke="#5e61ed" stroke-width="1.51"/><path d="M903,10L632,-251L551,-72Z" fill="#5659e5" stroke="#5659e5" stroke-width="1.51"/><path d="M1344,145L1073,29L1047,339Z" fill="#5c60f2" stroke="#5c60f2" stroke-width="1.51"/><path d="M190,618L222,710L487,539Z" fill="#5d60ef" stroke="#5d60ef" stroke-width="1.51"/><path d="M1111,622L1163,798L1174,534Z" fill="#6468ff" stroke="#6468ff" stroke-width="1.51"/><path d="M892,854L1086,808L1111,622Z" fill="#6468ff" stroke="#6468ff" stroke-width="1.51"/><path d="M968,1060L1086,808L892,854Z" fill="#6367ff" stroke="#6367ff" stroke-width="1.51"/><path d="M1174,534L1264,418L1047,339Z" fill="#666afe" stroke="#666afe" stroke-width="1.51"/><path d="M1509,622L1264,418L1174,534Z" fill="#6468ff" stroke="#6468ff" stroke-width="1.51"/><path d="M411,853L509,987L590,729Z" fill="#6063f7" stroke="#6063f7" stroke-width="1.51"/><path d="M1154,1092L1163,798L1086,808Z" fill="#6165ff" stroke="#6165ff" stroke-width="1.51"/><path d="M340,1024L509,987L411,853Z" fill="#5c5ff4" stroke="#5c5ff4" stroke-width="1.51"/><path d="M1086,808L1163,798L1111,622Z" fill="#6368ff" stroke="#6368ff" stroke-width="1.51"/><path d="M968,1060L892,854L729,918Z" fill="#6368ff" stroke="#6368ff" stroke-width="1.51"/><path d="M1073,29L1151,-34L903,10Z" fill="#585aea" stroke="#585aea" stroke-width="1.51"/><path d="M1344,145L1151,-34L1073,29Z" fill="#575aec" stroke="#575aec" stroke-width="1.51"/><path d="M195,278L-91,445L190,618Z" fill="#595ce8" stroke="#595ce8" stroke-width="1.51"/><path d="M234,-166L305,179L503,5Z" fill="#5152dd" stroke="#5152dd" stroke-width="1.51"/><path d="M750,-348L632,-251L903,10Z" fill="#5356e2" stroke="#5356e2" stroke-width="1.51"/><path d="M395,-263L234,-166L503,5Z" fill="#4b4dd8" stroke="#4b4dd8" stroke-width="1.51"/><path d="M147,922L340,1024L411,853Z" fill="#585bef" stroke="#585bef" stroke-width="1.51"/><path d="M714,1277L729,918L509,987Z" fill="#6165fd" stroke="#6165fd" stroke-width="1.51"/><path d="M714,1277L968,1060L729,918Z" fill="#6166ff" stroke="#6166ff" stroke-width="1.51"/><path d="M1491,281L1344,145L1264,418Z" fill="#5e62f7" stroke="#5e62f7" stroke-width="1.51"/><path d="M1264,418L1344,145L1047,339Z" fill="#6065f8" stroke="#6065f8" stroke-width="1.51"/><path d="M100,149L4,168L195,278Z" fill="#5052dd" stroke="#5052dd" stroke-width="1.51"/><path d="M-53,812L147,922L222,710Z" fill="#5457e9" stroke="#5457e9" stroke-width="1.51"/><path d="M222,710L147,922L411,853Z" fill="#595cee" stroke="#595cee" stroke-width="1.51"/><path d="M23,-50L4,168L100,149Z" fill="#4a4cd6" stroke="#4a4cd6" stroke-width="1.51"/><path d="M395,-263L503,5L551,-72Z" fill="#5052dd" stroke="#5052dd" stroke-width="1.51"/><path d="M632,-251L395,-263L551,-72Z" fill="#4e50db" stroke="#4e50db" stroke-width="1.51"/><path d="M-53,812L222,710L190,618Z" fill="#5659e9" stroke="#5659e9" stroke-width="1.51"/><path d="M1344,145L1273,-77L1151,-34Z" fill="#5558eb" stroke="#5558eb" stroke-width="1.51"/><path d="M1039,-360L750,-348L903,10Z" fill="#5053e0" stroke="#5053e0" stroke-width="1.51"/><path d="M632,-251L750,-348L395,-263Z" fill="#4d4fd9" stroke="#4d4fd9" stroke-width="1.51"/><path d="M1039,-360L903,10L1151,-34Z" fill="#5355e5" stroke="#5355e5" stroke-width="1.51"/><path d="M395,-263L251,-227L234,-166Z" fill="#4648d1" stroke="#4648d1" stroke-width="1.51"/><path d="M234,-166L23,-50L100,149Z" fill="#494ad4" stroke="#494ad4" stroke-width="1.51"/><path d="M4,168L-91,445L195,278Z" fill="#5254df" stroke="#5254df" stroke-width="1.51"/><path d="M159,1258L484,1188L340,1024Z" fill="#565af1" stroke="#565af1" stroke-width="1.51"/><path d="M340,1024L484,1188L509,987Z" fill="#5b5ef5" stroke="#5b5ef5" stroke-width="1.51"/><path d="M-308,345L-180,534L-91,445Z" fill="#5052de" stroke="#5052de" stroke-width="1.51"/><path d="M-95,-252L23,-50L234,-166Z" fill="#4143cc" stroke="#4143cc" stroke-width="1.51"/><path d="M1509,622L1491,281L1264,418Z" fill="#6368ff" stroke="#6368ff" stroke-width="1.51"/><path d="M1498,-141L1405,-234L1273,-77Z" fill="#4d50e4" stroke="#4d50e4" stroke-width="1.51"/><path d="M1491,281L1486,202L1344,145Z" fill="#5b5ef4" stroke="#5b5ef4" stroke-width="1.51"/><path d="M1163,798L1509,622L1174,534Z" fill="#6367ff" stroke="#6367ff" stroke-width="1.51"/><path d="M968,1060L1154,1092L1086,808Z" fill="#6065ff" stroke="#6065ff" stroke-width="1.51"/><path d="M1139,1299L1154,1092L968,1060Z" fill="#5d62ff" stroke="#5d62ff" stroke-width="1.51"/><path d="M-91,445L-106,656L190,618Z" fill="#5557e5" stroke="#5557e5" stroke-width="1.51"/><path d="M-106,656L-53,812L190,618Z" fill="#5356e5" stroke="#5356e5" stroke-width="1.51"/><path d="M147,922L159,1258L340,1024Z" fill="#5457ec" stroke="#5457ec" stroke-width="1.51"/><path d="M1479,817L1509,622L1163,798Z" fill="#6065ff" stroke="#6065ff" stroke-width="1.51"/><path d="M1273,-77L1039,-360L1151,-34Z" fill="#5053e3" stroke="#5053e3" stroke-width="1.51"/><path d="M484,1188L714,1277L509,987Z" fill="#5d61fa" stroke="#5d61fa" stroke-width="1.51"/><path d="M-289,709L-104,976L-53,812Z" fill="#4c4fe0" stroke="#4c4fe0" stroke-width="1.51"/><path d="M-91,445L-180,534L-106,656Z" fill="#5253e0" stroke="#5253e0" stroke-width="1.51"/><path d="M-308,345L-91,445L4,168Z" fill="#4e4fda" stroke="#4e4fda" stroke-width="1.51"/><path d="M1402,1020L1479,817L1163,798Z" fill="#5f63ff" stroke="#5f63ff" stroke-width="1.51"/><path d="M714,1277L760,1308L968,1060Z" fill="#6064ff" stroke="#6064ff" stroke-width="1.51"/><path d="M159,1258L760,1308L714,1277Z" fill="#5b5ff9" stroke="#5b5ff9" stroke-width="1.51"/><path d="M1154,1092L1402,1020L1163,798Z" fill="#5f63ff" stroke="#5f63ff" stroke-width="1.51"/><path d="M1251,1173L1402,1020L1154,1092Z" fill="#5c60ff" stroke="#5c60ff" stroke-width="1.51"/><path d="M1139,1299L1251,1173L1154,1092Z" fill="#5c60ff" stroke="#5c60ff" stroke-width="1.51"/><path d="M1273,-77L1305,-344L1039,-360Z" fill="#4c4edf" stroke="#4c4edf" stroke-width="1.51"/><path d="M1498,-141L1273,-77L1344,145Z" fill="#5355e9" stroke="#5355e9" stroke-width="1.51"/><path d="M-289,709L-53,812L-106,656Z" fill="#4e50e0" stroke="#4e50e0" stroke-width="1.51"/><path d="M-53,812L-104,976L147,922Z" fill="#5052e5" stroke="#5052e5" stroke-width="1.51"/><path d="M484,1188L159,1258L714,1277Z" fill="#585cf5" stroke="#585cf5" stroke-width="1.51"/><path d="M1405,-234L1305,-344L1273,-77Z" fill="#4c4ee1" stroke="#4c4ee1" stroke-width="1.51"/><path d="M1405,-234L1634,-249L1305,-344Z" fill="#484bde" stroke="#484bde" stroke-width="1.51"/><path d="M1604,46L1498,-141L1344,145Z" fill="#5355eb" stroke="#5355eb" stroke-width="1.51"/><path d="M1604,46L1344,145L1486,202Z" fill="#575af0" stroke="#575af0" stroke-width="1.51"/><path d="M1604,46L1486,202L1688,403Z" fill="#595df4" stroke="#595df4" stroke-width="1.51"/><path d="M1688,403L1491,281L1509,622Z" fill="#6266ff" stroke="#6266ff" stroke-width="1.51"/><path d="M1688,403L1486,202L1491,281Z" fill="#5c61f8" stroke="#5c61f8" stroke-width="1.51"/><path d="M760,1308L1139,1299L968,1060Z" fill="#5e63ff" stroke="#5e63ff" stroke-width="1.51"/><path d="M1251,1173L1371,1209L1402,1020Z" fill="#5b5fff" stroke="#5b5fff" stroke-width="1.51"/><path d="M1606,831L1509,622L1479,817Z" fill="#5e62ff" stroke="#5e62ff" stroke-width="1.51"/><path d="M1781,593L1688,403L1509,622Z" fill="#6064ff" stroke="#6064ff" stroke-width="1.51"/><path d="M-61,1138L159,1258L147,922Z" fill="#4f52e8" stroke="#4f52e8" stroke-width="1.51"/><path d="M-292,65L-308,345L4,168Z" fill="#4748d2" stroke="#4748d2" stroke-width="1.51"/><path d="M-180,534L-289,709L-106,656Z" fill="#4e50de" stroke="#4e50de" stroke-width="1.51"/><path d="M1402,1020L1606,831L1479,817Z" fill="#5d61ff" stroke="#5d61ff" stroke-width="1.51"/><path d="M1694,965L1606,831L1402,1020Z" fill="#5b5fff" stroke="#5b5fff" stroke-width="1.51"/><path d="M-308,345L-289,709L-180,534Z" fill="#4d50dc" stroke="#4d50dc" stroke-width="1.51"/><path d="M251,-227L-95,-252L234,-166Z" fill="#4242cb" stroke="#4242cb" stroke-width="1.51"/><path d="M23,-50L-292,65L4,168Z" fill="#4547d0" stroke="#4547d0" stroke-width="1.51"/><path d="M-147,-400L-95,-252L251,-227Z" fill="#3a3bc4" stroke="#3a3bc4" stroke-width="1.51"/><path d="M-147,-400L251,-227L395,-263Z" fill="#3f41c9" stroke="#3f41c9" stroke-width="1.51"/><path d="M-283,-31L-292,65L23,-50Z" fill="#4041ca" stroke="#4041ca" stroke-width="1.51"/><path d="M-324,1024L-61,1138L-104,976Z" fill="#494bdf" stroke="#494bdf" stroke-width="1.51"/><path d="M-104,976L-61,1138L147,922Z" fill="#4e51e5" stroke="#4e51e5" stroke-width="1.51"/><path d="M1139,1299L1371,1209L1251,1173Z" fill="#5b5fff" stroke="#5b5fff" stroke-width="1.51"/><path d="M-95,-252L-283,-31L23,-50Z" fill="#3e3fc7" stroke="#3e3fc7" stroke-width="1.51"/><path d="M1714,-151L1498,-141L1604,46Z" fill="#4d51e7" stroke="#4d51e7" stroke-width="1.51"/><path d="M1606,831L1781,593L1509,622Z" fill="#5e62ff" stroke="#5e62ff" stroke-width="1.51"/><path d="M1694,965L1781,593L1606,831Z" fill="#5c60ff" stroke="#5c60ff" stroke-width="1.51"/><path d="M1756,1214L1694,965L1402,1020Z" fill="#595dff" stroke="#595dff" stroke-width="1.51"/><path d="M1714,-151L1634,-249L1498,-141Z" fill="#494ce2" stroke="#494ce2" stroke-width="1.51"/><path d="M1498,-141L1634,-249L1405,-234Z" fill="#4a4de1" stroke="#4a4de1" stroke-width="1.51"/><path d="M1714,-151L1604,46L1688,403Z" fill="#5457ef" stroke="#5457ef" stroke-width="1.51"/><path d="M-95,-252L-147,-400L-283,-31Z" fill="#3738c0" stroke="#3738c0" stroke-width="1.51"/><path d="M750,-348L-147,-400L395,-263Z" fill="#4344ce" stroke="#4344ce" stroke-width="1.51"/><path d="M1039,-360L-147,-400L750,-348Z" fill="#484ad4" stroke="#484ad4" stroke-width="1.51"/><path d="M1781,593L1714,-151L1688,403Z" fill="#5a5ef7" stroke="#5a5ef7" stroke-width="1.51"/><path d="M-289,709L-324,1024L-104,976Z" fill="#494bdc" stroke="#494bdc" stroke-width="1.51"/><path d="M-61,1138L-177,1245L159,1258Z" fill="#4a4de4" stroke="#4a4de4" stroke-width="1.51"/><path d="M-308,345L-324,1024L-289,709Z" fill="#4a4cda" stroke="#4a4cda" stroke-width="1.51"/><path d="M-324,1024L-177,1245L-61,1138Z" fill="#4649de" stroke="#4649de" stroke-width="1.51"/><path d="M159,1258L-177,1245L760,1308Z" fill="#5255ee" stroke="#5255ee" stroke-width="1.51"/><path d="M1371,1209L1756,1214L1402,1020Z" fill="#595dff" stroke="#595dff" stroke-width="1.51"/><path d="M1694,965L1756,1214L1781,593Z" fill="#595dff" stroke="#595dff" stroke-width="1.51"/><path d="M1139,1299L1756,1214L1371,1209Z" fill="#585dff" stroke="#585dff" stroke-width="1.51"/></svg>