<svg xmlns="http://www.w3.org/2000/svg" width="1500" height="900"><path d="M779,512L885,598L888,509Z" fill="#6367f5" stroke="#6367f5" stroke-width="1.51"/><path d="M779,512L845,650L885,598Z" fill="#6265f3" stroke="#6265f3" stroke-width="1.51"/><path d="M845,650L889,678L885,598Z" fill="#5e61ee" stroke="#5e61ee" stroke-width="1.51"/><path d="M885,598L1037,510L888,509Z" fill="#6164f1" stroke="#6164f1" stroke-width="1.51"/><path d="M697,638L799,690L845,650Z" fill="#6063f0" stroke="#6063f0" stroke-width="1.51"/><path d="M845,650L799,690L889,678Z" fill="#5d60ed" stroke="#5d60ed" stroke-width="1.51"/><path d="M888,509L879,407L779,512Z" fill="#676bf9" stroke="#676bf9" stroke-width="1.51"/><path d="M779,512L697,638L845,650Z" fill="#6366f4" stroke="#6366f4" stroke-width="1.51"/><path d="M879,407L831,377L779,512Z" fill="#686cfb" stroke="#686cfb" stroke-width="1.51"/><path d="M779,512L620,544L697,638Z" fill="#6569f8" stroke="#6569f8" stroke-width="1.51"/><path d="M831,377L665,472L779,512Z" fill="#6b6ffe" stroke="#6b6ffe" stroke-width="1.51"/><path d="M1008,673L1037,510L885,598Z" fill="#5d5fec" stroke="#5d5fec" stroke-width="1.51"/><path d="M888,509L1037,510L879,407Z" fill="#6467f6" stroke="#6467f6" stroke-width="1.51"/><path d="M889,678L1008,673L885,598Z" fill="#5b5eeb" stroke="#5b5eeb" stroke-width="1.51"/><path d="M937,791L1008,673L889,678Z" fill="#585ae6" stroke="#585ae6" stroke-width="1.51"/><path d="M665,472L620,544L779,512Z" fill="#686bfb" stroke="#686bfb" stroke-width="1.51"/><path d="M697,638L659,686L799,690Z" fill="#6063f1" stroke="#6063f1" stroke-width="1.51"/><path d="M611,678L659,686L697,638Z" fill="#6063f1" stroke="#6063f1" stroke-width="1.51"/><path d="M1008,673L1054,645L1037,510Z" fill="#5a5ce9" stroke="#5a5ce9" stroke-width="1.51"/><path d="M879,407L923,330L831,377Z" fill="#656af9" stroke="#656af9" stroke-width="1.51"/><path d="M1042,363L923,330L879,407Z" fill="#6367f6" stroke="#6367f6" stroke-width="1.51"/><path d="M665,472L554,392L620,544Z" fill="#696dfe" stroke="#696dfe" stroke-width="1.51"/><path d="M831,377L655,389L665,472Z" fill="#6a6fff" stroke="#6a6fff" stroke-width="1.51"/><path d="M685,327L655,389L831,377Z" fill="#696eff" stroke="#696eff" stroke-width="1.51"/><path d="M923,330L778,303L831,377Z" fill="#666afb" stroke="#666afb" stroke-width="1.51"/><path d="M565,626L611,678L697,638Z" fill="#6063f2" stroke="#6063f2" stroke-width="1.51"/><path d="M799,690L937,791L889,678Z" fill="#5a5ce9" stroke="#5a5ce9" stroke-width="1.51"/><path d="M1008,673L1101,690L1054,645Z" fill="#5659e5" stroke="#5659e5" stroke-width="1.51"/><path d="M760,845L937,791L799,690Z" fill="#595be7" stroke="#595be7" stroke-width="1.51"/><path d="M760,845L799,690L659,686Z" fill="#5d60ed" stroke="#5d60ed" stroke-width="1.51"/><path d="M778,303L685,327L831,377Z" fill="#696eff" stroke="#696eff" stroke-width="1.51"/><path d="M620,544L565,626L697,638Z" fill="#6266f5" stroke="#6266f5" stroke-width="1.51"/><path d="M513,610L565,626L620,544Z" fill="#6265f6" stroke="#6265f6" stroke-width="1.51"/><path d="M1037,510L1042,363L879,407Z" fill="#6367f5" stroke="#6367f5" stroke-width="1.51"/><path d="M1092,384L1042,363L1037,510Z" fill="#6164f2" stroke="#6164f2" stroke-width="1.51"/><path d="M1042,363L998,309L923,330Z" fill="#6164f5" stroke="#6164f5" stroke-width="1.51"/><path d="M923,330L919,216L778,303Z" fill="#6468fa" stroke="#6468fa" stroke-width="1.51"/><path d="M1158,579L1146,464L1037,510Z" fill="#5c5eec" stroke="#5c5eec" stroke-width="1.51"/><path d="M1006,842L1101,690L1008,673Z" fill="#5456e1" stroke="#5456e1" stroke-width="1.51"/><path d="M663,852L760,845L659,686Z" fill="#5a5ce9" stroke="#5a5ce9" stroke-width="1.51"/><path d="M1146,464L1092,384L1037,510Z" fill="#6063f1" stroke="#6063f1" stroke-width="1.51"/><path d="M1135,268L1076,224L998,309Z" fill="#5d61f1" stroke="#5d61f1" stroke-width="1.51"/><path d="M655,389L554,392L665,472Z" fill="#696eff" stroke="#696eff" stroke-width="1.51"/><path d="M590,269L554,392L655,389Z" fill="#686cff" stroke="#686cff" stroke-width="1.51"/><path d="M1158,579L1037,510L1054,645Z" fill="#5a5de9" stroke="#5a5de9" stroke-width="1.51"/><path d="M1101,690L1158,579L1054,645Z" fill="#5758e5" stroke="#5758e5" stroke-width="1.51"/><path d="M565,626L499,738L611,678Z" fill="#5e61f0" stroke="#5e61f0" stroke-width="1.51"/><path d="M611,678L602,791L659,686Z" fill="#5d60ee" stroke="#5d60ee" stroke-width="1.51"/><path d="M488,492L513,610L620,544Z" fill="#6367f9" stroke="#6367f9" stroke-width="1.51"/><path d="M499,738L602,791L611,678Z" fill="#5b5eed" stroke="#5b5eed" stroke-width="1.51"/><path d="M937,791L1006,842L1008,673Z" fill="#5456e1" stroke="#5456e1" stroke-width="1.51"/><path d="M883,961L1006,842L937,791Z" fill="#5052dd" stroke="#5052dd" stroke-width="1.51"/><path d="M760,845L828,891L937,791Z" fill="#5557e3" stroke="#5557e3" stroke-width="1.51"/><path d="M659,936L828,891L760,845Z" fill="#5558e4" stroke="#5558e4" stroke-width="1.51"/><path d="M602,791L663,852L659,686Z" fill="#5a5ceb" stroke="#5a5ceb" stroke-width="1.51"/><path d="M983,198L919,216L998,309Z" fill="#6064f6" stroke="#6064f6" stroke-width="1.51"/><path d="M998,309L919,216L923,330Z" fill="#6165f7" stroke="#6165f7" stroke-width="1.51"/><path d="M778,303L722,179L685,327Z" fill="#686cff" stroke="#686cff" stroke-width="1.51"/><path d="M554,392L488,492L620,544Z" fill="#676cfd" stroke="#676cfd" stroke-width="1.51"/><path d="M1158,579L1196,535L1146,464Z" fill="#5a5de8" stroke="#5a5de8" stroke-width="1.51"/><path d="M998,309L1042,363L1135,268Z" fill="#5e62f2" stroke="#5e62f2" stroke-width="1.51"/><path d="M1237,584L1196,535L1158,579Z" fill="#5759e5" stroke="#5759e5" stroke-width="1.51"/><path d="M919,216L803,182L778,303Z" fill="#6569fb" stroke="#6569fb" stroke-width="1.51"/><path d="M685,327L590,269L655,389Z" fill="#686cff" stroke="#686cff" stroke-width="1.51"/><path d="M722,179L590,269L685,327Z" fill="#676bff" stroke="#676bff" stroke-width="1.51"/><path d="M554,392L453,420L488,492Z" fill="#686cff" stroke="#686cff" stroke-width="1.51"/><path d="M919,216L947,116L803,182Z" fill="#6266f9" stroke="#6266f9" stroke-width="1.51"/><path d="M1076,224L983,198L998,309Z" fill="#5e62f4" stroke="#5e62f4" stroke-width="1.51"/><path d="M1181,381L1092,384L1146,464Z" fill="#5e60ef" stroke="#5e60ef" stroke-width="1.51"/><path d="M635,952L659,936L663,852Z" fill="#5355e2" stroke="#5355e2" stroke-width="1.51"/><path d="M513,610L499,738L565,626Z" fill="#5e61f2" stroke="#5e61f2" stroke-width="1.51"/><path d="M396,738L499,738L513,610Z" fill="#5b5fef" stroke="#5b5fef" stroke-width="1.51"/><path d="M1196,535L1181,381L1146,464Z" fill="#5d60ed" stroke="#5d60ed" stroke-width="1.51"/><path d="M803,182L722,179L778,303Z" fill="#676bff" stroke="#676bff" stroke-width="1.51"/><path d="M485,212L523,306L590,269Z" fill="#6569ff" stroke="#6569ff" stroke-width="1.51"/><path d="M590,269L523,306L554,392Z" fill="#676bff" stroke="#676bff" stroke-width="1.51"/><path d="M1310,328L1222,329L1345,382Z" fill="#575ae8" stroke="#575ae8" stroke-width="1.51"/><path d="M1233,732L1237,584L1158,579Z" fill="#5355e0" stroke="#5355e0" stroke-width="1.51"/><path d="M1233,732L1158,579L1101,690Z" fill="#5355e0" stroke="#5355e0" stroke-width="1.51"/><path d="M488,492L388,583L513,610Z" fill="#6266f8" stroke="#6266f8" stroke-width="1.51"/><path d="M523,306L453,420L554,392Z" fill="#676cff" stroke="#676cff" stroke-width="1.51"/><path d="M1006,842L1143,815L1101,690Z" fill="#5052dc" stroke="#5052dc" stroke-width="1.51"/><path d="M1133,949L1143,815L1006,842Z" fill="#4b4cd6" stroke="#4b4cd6" stroke-width="1.51"/><path d="M1135,268L1042,363L1092,384Z" fill="#5e61f1" stroke="#5e61f1" stroke-width="1.51"/><path d="M828,891L883,961L937,791Z" fill="#5153df" stroke="#5153df" stroke-width="1.51"/><path d="M810,1006L883,961L828,891Z" fill="#4f51dc" stroke="#4f51dc" stroke-width="1.51"/><path d="M499,738L505,800L602,791Z" fill="#595beb" stroke="#595beb" stroke-width="1.51"/><path d="M663,852L659,936L760,845Z" fill="#5658e4" stroke="#5658e4" stroke-width="1.51"/><path d="M396,738L505,800L499,738Z" fill="#585bec" stroke="#585bec" stroke-width="1.51"/><path d="M1181,381L1135,268L1092,384Z" fill="#5d60ef" stroke="#5d60ef" stroke-width="1.51"/><path d="M635,952L663,852L518,902Z" fill="#5355e3" stroke="#5355e3" stroke-width="1.51"/><path d="M883,961L982,959L1006,842Z" fill="#4d4fd9" stroke="#4d4fd9" stroke-width="1.51"/><path d="M1143,815L1233,732L1101,690Z" fill="#4f51db" stroke="#4f51db" stroke-width="1.51"/><path d="M883,961L913,988L982,959Z" fill="#4c4dd7" stroke="#4c4dd7" stroke-width="1.51"/><path d="M810,1006L913,988L883,961Z" fill="#4c4ed9" stroke="#4c4ed9" stroke-width="1.51"/><path d="M1181,381L1222,329L1135,268Z" fill="#5b5eed" stroke="#5b5eed" stroke-width="1.51"/><path d="M995,65L983,198L1125,118Z" fill="#5c5ff3" stroke="#5c5ff3" stroke-width="1.51"/><path d="M1353,471L1181,381L1196,535Z" fill="#5a5de9" stroke="#5a5de9" stroke-width="1.51"/><path d="M659,936L810,1006L828,891Z" fill="#5254e0" stroke="#5254e0" stroke-width="1.51"/><path d="M518,902L663,852L602,791Z" fill="#5558e6" stroke="#5558e6" stroke-width="1.51"/><path d="M386,533L388,583L488,492Z" fill="#6367f9" stroke="#6367f9" stroke-width="1.51"/><path d="M453,420L386,533L488,492Z" fill="#666afd" stroke="#666afd" stroke-width="1.51"/><path d="M983,198L947,116L919,216Z" fill="#6063f6" stroke="#6063f6" stroke-width="1.51"/><path d="M807,39L677,67L722,179Z" fill="#6569ff" stroke="#6569ff" stroke-width="1.51"/><path d="M995,65L947,116L983,198Z" fill="#5e61f5" stroke="#5e61f5" stroke-width="1.51"/><path d="M1196,222L1076,224L1135,268Z" fill="#5a5eef" stroke="#5a5eef" stroke-width="1.51"/><path d="M685,1047L810,1006L659,936Z" fill="#4f52dd" stroke="#4f52dd" stroke-width="1.51"/><path d="M1143,815L1203,832L1233,732Z" fill="#4c4dd7" stroke="#4c4dd7" stroke-width="1.51"/><path d="M1133,949L1203,832L1143,815Z" fill="#494ad4" stroke="#494ad4" stroke-width="1.51"/><path d="M505,800L518,902L602,791Z" fill="#5658e7" stroke="#5658e7" stroke-width="1.51"/><path d="M384,834L518,902L505,800Z" fill="#5457e6" stroke="#5457e6" stroke-width="1.51"/><path d="M388,583L396,738L513,610Z" fill="#5d61f3" stroke="#5d61f3" stroke-width="1.51"/><path d="M523,306L391,377L453,420Z" fill="#666bff" stroke="#666bff" stroke-width="1.51"/><path d="M453,420L391,377L386,533Z" fill="#676cff" stroke="#676cff" stroke-width="1.51"/><path d="M354,321L391,377L523,306Z" fill="#6569ff" stroke="#6569ff" stroke-width="1.51"/><path d="M722,179L551,158L590,269Z" fill="#656aff" stroke="#656aff" stroke-width="1.51"/><path d="M626,77L551,158L722,179Z" fill="#6469ff" stroke="#6469ff" stroke-width="1.51"/><path d="M551,158L485,212L590,269Z" fill="#6569ff" stroke="#6569ff" stroke-width="1.51"/><path d="M1222,329L1196,222L1135,268Z" fill="#5a5ced" stroke="#5a5ced" stroke-width="1.51"/><path d="M1107,1046L1133,949L982,959Z" fill="#4647d0" stroke="#4647d0" stroke-width="1.51"/><path d="M982,959L1133,949L1006,842Z" fill="#4a4cd6" stroke="#4a4cd6" stroke-width="1.51"/><path d="M1233,732L1316,703L1237,584Z" fill="#4f51dc" stroke="#4f51dc" stroke-width="1.51"/><path d="M1237,584L1353,471L1196,535Z" fill="#5659e5" stroke="#5659e5" stroke-width="1.51"/><path d="M1222,329L1310,328L1196,222Z" fill="#585bea" stroke="#585bea" stroke-width="1.51"/><path d="M1347,835L1316,703L1233,732Z" fill="#4a4bd5" stroke="#4a4bd5" stroke-width="1.51"/><path d="M1347,835L1233,732L1203,832Z" fill="#494ad4" stroke="#494ad4" stroke-width="1.51"/><path d="M807,39L722,179L803,182Z" fill="#6469fe" stroke="#6469fe" stroke-width="1.51"/><path d="M947,116L807,39L803,182Z" fill="#6266fa" stroke="#6266fa" stroke-width="1.51"/><path d="M1125,118L983,198L1076,224Z" fill="#5c5ff2" stroke="#5c5ff2" stroke-width="1.51"/><path d="M635,952L685,1047L659,936Z" fill="#5052de" stroke="#5052de" stroke-width="1.51"/><path d="M518,902L620,1018L635,952Z" fill="#5052e0" stroke="#5052e0" stroke-width="1.51"/><path d="M935,-13L807,39L947,116Z" fill="#5f63f9" stroke="#5f63f9" stroke-width="1.51"/><path d="M913,988L996,1040L982,959Z" fill="#494ad4" stroke="#494ad4" stroke-width="1.51"/><path d="M810,1006L996,1040L913,988Z" fill="#4a4bd6" stroke="#4a4bd6" stroke-width="1.51"/><path d="M685,1047L996,1040L810,1006Z" fill="#4c4dd8" stroke="#4c4dd8" stroke-width="1.51"/><path d="M620,1018L685,1047L635,952Z" fill="#4e50dd" stroke="#4e50dd" stroke-width="1.51"/><path d="M677,67L626,77L722,179Z" fill="#6468ff" stroke="#6468ff" stroke-width="1.51"/><path d="M452,50L379,174L485,212Z" fill="#6266ff" stroke="#6266ff" stroke-width="1.51"/><path d="M692,-40L626,77L677,67Z" fill="#6367ff" stroke="#6367ff" stroke-width="1.51"/><path d="M1196,222L1125,118L1076,224Z" fill="#5a5def" stroke="#5a5def" stroke-width="1.51"/><path d="M1359,605L1353,471L1237,584Z" fill="#5356e1" stroke="#5356e1" stroke-width="1.51"/><path d="M1345,382L1222,329L1181,381Z" fill="#595cea" stroke="#595cea" stroke-width="1.51"/><path d="M1196,222L1240,97L1125,118Z" fill="#575aed" stroke="#575aed" stroke-width="1.51"/><path d="M1316,703L1359,605L1237,584Z" fill="#5052dc" stroke="#5052dc" stroke-width="1.51"/><path d="M388,583L315,645L396,738Z" fill="#5c5ff2" stroke="#5c5ff2" stroke-width="1.51"/><path d="M396,738L384,834L505,800Z" fill="#5659ea" stroke="#5659ea" stroke-width="1.51"/><path d="M246,530L315,645L388,583Z" fill="#6063f6" stroke="#6063f6" stroke-width="1.51"/><path d="M246,530L388,583L386,533Z" fill="#6165f9" stroke="#6165f9" stroke-width="1.51"/><path d="M518,902L455,1016L620,1018Z" fill="#4e50de" stroke="#4e50de" stroke-width="1.51"/><path d="M283,823L384,834L396,738Z" fill="#5558e9" stroke="#5558e9" stroke-width="1.51"/><path d="M391,377L294,411L386,533Z" fill="#676bff" stroke="#676bff" stroke-width="1.51"/><path d="M485,212L354,321L523,306Z" fill="#6569ff" stroke="#6569ff" stroke-width="1.51"/><path d="M304,318L354,321L279,186Z" fill="#6367ff" stroke="#6367ff" stroke-width="1.51"/><path d="M1133,949L1256,884L1203,832Z" fill="#4647d1" stroke="#4647d1" stroke-width="1.51"/><path d="M1457,680L1441,621L1359,605Z" fill="#4c4ed8" stroke="#4c4ed8" stroke-width="1.51"/><path d="M1232,1005L1256,884L1133,949Z" fill="#4344cd" stroke="#4344cd" stroke-width="1.51"/><path d="M1353,471L1345,382L1181,381Z" fill="#595be8" stroke="#595be8" stroke-width="1.51"/><path d="M354,321L294,411L391,377Z" fill="#6569ff" stroke="#6569ff" stroke-width="1.51"/><path d="M315,645L295,697L396,738Z" fill="#5a5df0" stroke="#5a5df0" stroke-width="1.51"/><path d="M140,629L295,697L315,645Z" fill="#5b5ef2" stroke="#5b5ef2" stroke-width="1.51"/><path d="M685,1047L1107,1046L996,1040Z" fill="#4749d3" stroke="#4749d3" stroke-width="1.51"/><path d="M996,1040L1107,1046L982,959Z" fill="#4547d1" stroke="#4547d1" stroke-width="1.51"/><path d="M995,65L935,-13L947,116Z" fill="#5d61f6" stroke="#5d61f6" stroke-width="1.51"/><path d="M807,39L692,-40L677,67Z" fill="#6367ff" stroke="#6367ff" stroke-width="1.51"/><path d="M987,-6L935,-13L995,65Z" fill="#5c60f5" stroke="#5c60f5" stroke-width="1.51"/><path d="M1128,-12L987,-6L995,65Z" fill="#5a5df3" stroke="#5a5df3" stroke-width="1.51"/><path d="M1353,471L1398,420L1345,382Z" fill="#5659e5" stroke="#5659e5" stroke-width="1.51"/><path d="M1448,214L1348,173L1310,328Z" fill="#5255e5" stroke="#5255e5" stroke-width="1.51"/><path d="M1312,108L1240,97L1196,222Z" fill="#5558ea" stroke="#5558ea" stroke-width="1.51"/><path d="M1415,460L1398,420L1353,471Z" fill="#5659e4" stroke="#5659e4" stroke-width="1.51"/><path d="M354,321L304,318L294,411Z" fill="#6569ff" stroke="#6569ff" stroke-width="1.51"/><path d="M379,174L354,321L485,212Z" fill="#6368ff" stroke="#6368ff" stroke-width="1.51"/><path d="M1334,915L1347,835L1256,884Z" fill="#4344cd" stroke="#4344cd" stroke-width="1.51"/><path d="M1256,884L1347,835L1203,832Z" fill="#4647d1" stroke="#4647d1" stroke-width="1.51"/><path d="M1359,605L1415,460L1353,471Z" fill="#5356e1" stroke="#5356e1" stroke-width="1.51"/><path d="M1441,621L1415,460L1359,605Z" fill="#5052dd" stroke="#5052dd" stroke-width="1.51"/><path d="M294,411L246,530L386,533Z" fill="#6468fd" stroke="#6468fd" stroke-width="1.51"/><path d="M203,438L246,530L294,411Z" fill="#6569ff" stroke="#6569ff" stroke-width="1.51"/><path d="M452,50L485,212L551,158Z" fill="#6367ff" stroke="#6367ff" stroke-width="1.51"/><path d="M761,-102L837,-47L873,-150Z" fill="#5f63fc" stroke="#5f63fc" stroke-width="1.51"/><path d="M935,-13L837,-47L807,39Z" fill="#5f63fb" stroke="#5f63fb" stroke-width="1.51"/><path d="M626,77L452,50L551,158Z" fill="#6267ff" stroke="#6267ff" stroke-width="1.51"/><path d="M352,934L518,902L384,834Z" fill="#5153e4" stroke="#5153e4" stroke-width="1.51"/><path d="M352,934L455,1016L518,902Z" fill="#4e51e0" stroke="#4e51e0" stroke-width="1.51"/><path d="M620,1018L455,1016L685,1047Z" fill="#4c4fdb" stroke="#4c4fdb" stroke-width="1.51"/><path d="M1107,1046L1232,1005L1133,949Z" fill="#4243cc" stroke="#4243cc" stroke-width="1.51"/><path d="M837,-47L692,-40L807,39Z" fill="#6166fe" stroke="#6166fe" stroke-width="1.51"/><path d="M1125,118L1128,-12L995,65Z" fill="#595cf1" stroke="#595cf1" stroke-width="1.51"/><path d="M1348,173L1196,222L1310,328Z" fill="#5658e9" stroke="#5658e9" stroke-width="1.51"/><path d="M1457,680L1359,605L1316,703Z" fill="#4c4dd8" stroke="#4c4dd8" stroke-width="1.51"/><path d="M295,697L283,823L396,738Z" fill="#575aec" stroke="#575aec" stroke-width="1.51"/><path d="M198,849L283,823L295,697Z" fill="#5457ea" stroke="#5457ea" stroke-width="1.51"/><path d="M311,930L352,934L384,834Z" fill="#4f52e3" stroke="#4f52e3" stroke-width="1.51"/><path d="M1232,1005L1334,915L1256,884Z" fill="#4142cb" stroke="#4142cb" stroke-width="1.51"/><path d="M1347,835L1457,680L1316,703Z" fill="#4849d3" stroke="#4849d3" stroke-width="1.51"/><path d="M577,-47L452,50L626,77Z" fill="#6165ff" stroke="#6165ff" stroke-width="1.51"/><path d="M1505,691L1457,680L1458,845Z" fill="#4446cf" stroke="#4446cf" stroke-width="1.51"/><path d="M1441,621L1502,597L1415,460Z" fill="#4e50db" stroke="#4e50db" stroke-width="1.51"/><path d="M1224,9L1128,-12L1125,118Z" fill="#5659ee" stroke="#5659ee" stroke-width="1.51"/><path d="M873,-150L837,-47L935,-13Z" fill="#5d61fa" stroke="#5d61fa" stroke-width="1.51"/><path d="M1240,97L1224,9L1125,118Z" fill="#5558ec" stroke="#5558ec" stroke-width="1.51"/><path d="M1448,214L1310,328L1468,250Z" fill="#5254e4" stroke="#5254e4" stroke-width="1.51"/><path d="M1502,377L1345,382L1398,420Z" fill="#5457e3" stroke="#5457e3" stroke-width="1.51"/><path d="M246,530L140,629L315,645Z" fill="#5d61f5" stroke="#5d61f5" stroke-width="1.51"/><path d="M304,318L203,438L294,411Z" fill="#6469ff" stroke="#6469ff" stroke-width="1.51"/><path d="M141,275L203,438L304,318Z" fill="#6367ff" stroke="#6367ff" stroke-width="1.51"/><path d="M279,186L354,321L379,174Z" fill="#6266ff" stroke="#6266ff" stroke-width="1.51"/><path d="M283,823L311,930L384,834Z" fill="#5254e5" stroke="#5254e5" stroke-width="1.51"/><path d="M352,934L340,1028L455,1016Z" fill="#4b4ddd" stroke="#4b4ddd" stroke-width="1.51"/><path d="M203,438L190,489L246,530Z" fill="#6367fd" stroke="#6367fd" stroke-width="1.51"/><path d="M283,823L198,849L311,930Z" fill="#5053e5" stroke="#5053e5" stroke-width="1.51"/><path d="M1348,173L1312,108L1196,222Z" fill="#5457e9" stroke="#5457e9" stroke-width="1.51"/><path d="M559,-110L577,-47L692,-40Z" fill="#6064ff" stroke="#6064ff" stroke-width="1.51"/><path d="M692,-40L577,-47L626,77Z" fill="#6166ff" stroke="#6166ff" stroke-width="1.51"/><path d="M289,43L340,124L321,0Z" fill="#5f63ff" stroke="#5f63ff" stroke-width="1.51"/><path d="M452,50L340,124L379,174Z" fill="#6165ff" stroke="#6165ff" stroke-width="1.51"/><path d="M837,-47L761,-102L692,-40Z" fill="#6166ff" stroke="#6166ff" stroke-width="1.51"/><path d="M735,-125L761,-102L873,-150Z" fill="#5f63fe" stroke="#5f63fe" stroke-width="1.51"/><path d="M1458,845L1457,680L1347,835Z" fill="#4445ce" stroke="#4445ce" stroke-width="1.51"/><path d="M1232,1005L1294,1032L1334,915Z" fill="#3e3fc8" stroke="#3e3fc8" stroke-width="1.51"/><path d="M1107,1046L1294,1032L1232,1005Z" fill="#3f40c8" stroke="#3f40c8" stroke-width="1.51"/><path d="M340,124L279,186L379,174Z" fill="#6165ff" stroke="#6165ff" stroke-width="1.51"/><path d="M985,-134L935,-13L987,-6Z" fill="#5b5ef6" stroke="#5b5ef6" stroke-width="1.51"/><path d="M1312,108L1224,9L1240,97Z" fill="#5356ea" stroke="#5356ea" stroke-width="1.51"/><path d="M1457,680L1502,597L1441,621Z" fill="#4a4cd6" stroke="#4a4cd6" stroke-width="1.51"/><path d="M1415,460L1502,377L1398,420Z" fill="#5456e2" stroke="#5456e2" stroke-width="1.51"/><path d="M1505,691L1502,597L1457,680Z" fill="#484ad3" stroke="#484ad3" stroke-width="1.51"/><path d="M761,-102L735,-125L692,-40Z" fill="#6165ff" stroke="#6165ff" stroke-width="1.51"/><path d="M985,-134L987,-6L1103,-103Z" fill="#585cf3" stroke="#585cf3" stroke-width="1.51"/><path d="M1458,845L1347,835L1334,915Z" fill="#4143cb" stroke="#4143cb" stroke-width="1.51"/><path d="M311,930L340,1028L352,934Z" fill="#4c4edf" stroke="#4c4edf" stroke-width="1.51"/><path d="M455,1016L279,1058L685,1047Z" fill="#4a4cda" stroke="#4a4cda" stroke-width="1.51"/><path d="M577,-47L496,-48L452,50Z" fill="#5f64ff" stroke="#5f64ff" stroke-width="1.51"/><path d="M131,81L214,216L279,186Z" fill="#6064ff" stroke="#6064ff" stroke-width="1.51"/><path d="M559,-110L496,-48L577,-47Z" fill="#5f63ff" stroke="#5f63ff" stroke-width="1.51"/><path d="M1471,924L1458,845L1334,915Z" fill="#3e40c8" stroke="#3e40c8" stroke-width="1.51"/><path d="M1502,597L1519,472L1415,460Z" fill="#5052dd" stroke="#5052dd" stroke-width="1.51"/><path d="M1398,15L1362,1L1312,108Z" fill="#4f52e6" stroke="#4f52e6" stroke-width="1.51"/><path d="M1619,470L1519,472L1502,597Z" fill="#4e4fda" stroke="#4e4fda" stroke-width="1.51"/><path d="M1519,472L1502,377L1415,460Z" fill="#5355e1" stroke="#5355e1" stroke-width="1.51"/><path d="M103,600L140,629L190,489Z" fill="#5e61f7" stroke="#5e61f7" stroke-width="1.51"/><path d="M190,489L140,629L246,530Z" fill="#5f63f9" stroke="#5f63f9" stroke-width="1.51"/><path d="M311,930L279,1058L340,1028Z" fill="#494cdd" stroke="#494cdd" stroke-width="1.51"/><path d="M103,600L190,489L45,516Z" fill="#5f63f9" stroke="#5f63f9" stroke-width="1.51"/><path d="M1468,250L1310,328L1345,382Z" fill="#5457e5" stroke="#5457e5" stroke-width="1.51"/><path d="M1362,1L1200,-90L1224,9Z" fill="#5154ea" stroke="#5154ea" stroke-width="1.51"/><path d="M1502,377L1468,250L1345,382Z" fill="#5255e2" stroke="#5255e2" stroke-width="1.51"/><path d="M1103,-103L987,-6L1128,-12Z" fill="#575bf1" stroke="#575bf1" stroke-width="1.51"/><path d="M133,671L198,849L295,697Z" fill="#5659ed" stroke="#5659ed" stroke-width="1.51"/><path d="M985,-134L873,-150L935,-13Z" fill="#5b5ff7" stroke="#5b5ff7" stroke-width="1.51"/><path d="M279,186L214,216L304,318Z" fill="#6266ff" stroke="#6266ff" stroke-width="1.51"/><path d="M289,43L279,186L340,124Z" fill="#6064ff" stroke="#6064ff" stroke-width="1.51"/><path d="M1200,-90L1128,-12L1224,9Z" fill="#5356ed" stroke="#5356ed" stroke-width="1.51"/><path d="M1200,-90L1103,-103L1128,-12Z" fill="#5457ee" stroke="#5457ee" stroke-width="1.51"/><path d="M140,629L133,671L295,697Z" fill="#5a5cf1" stroke="#5a5cf1" stroke-width="1.51"/><path d="M343,-13L340,124L452,50Z" fill="#5f63ff" stroke="#5f63ff" stroke-width="1.51"/><path d="M735,-125L559,-110L692,-40Z" fill="#6065ff" stroke="#6065ff" stroke-width="1.51"/><path d="M347,-137L559,-110L735,-125Z" fill="#5e62ff" stroke="#5e62ff" stroke-width="1.51"/><path d="M1294,1032L1426,984L1334,915Z" fill="#3c3dc5" stroke="#3c3dc5" stroke-width="1.51"/><path d="M1458,845L1556,836L1505,691Z" fill="#4042cb" stroke="#4042cb" stroke-width="1.51"/><path d="M140,629L103,600L133,671Z" fill="#5a5ef3" stroke="#5a5ef3" stroke-width="1.51"/><path d="M43,824L132,893L198,849Z" fill="#4e52e6" stroke="#4e52e6" stroke-width="1.51"/><path d="M73,429L190,489L203,438Z" fill="#6468ff" stroke="#6468ff" stroke-width="1.51"/><path d="M1426,984L1471,924L1334,915Z" fill="#3c3dc6" stroke="#3c3dc6" stroke-width="1.51"/><path d="M1647,285L1526,294L1681,362Z" fill="#4c4edb" stroke="#4c4edb" stroke-width="1.51"/><path d="M1502,377L1526,294L1468,250Z" fill="#5052e0" stroke="#5052e0" stroke-width="1.51"/><path d="M1578,195L1513,123L1448,214Z" fill="#4c4fdf" stroke="#4c4fdf" stroke-width="1.51"/><path d="M1312,108L1348,173L1398,15Z" fill="#5053e6" stroke="#5053e6" stroke-width="1.51"/><path d="M1362,1L1224,9L1312,108Z" fill="#5154e8" stroke="#5154e8" stroke-width="1.51"/><path d="M1103,-103L1324,-148L985,-134Z" fill="#5357ef" stroke="#5357ef" stroke-width="1.51"/><path d="M343,-13L452,50L496,-48Z" fill="#5f63ff" stroke="#5f63ff" stroke-width="1.51"/><path d="M104,284L141,275L63,226Z" fill="#6064ff" stroke="#6064ff" stroke-width="1.51"/><path d="M214,216L141,275L304,318Z" fill="#6266ff" stroke="#6266ff" stroke-width="1.51"/><path d="M464,-105L343,-13L496,-48Z" fill="#5e62ff" stroke="#5e62ff" stroke-width="1.51"/><path d="M132,893L279,1058L311,930Z" fill="#4b4edf" stroke="#4b4edf" stroke-width="1.51"/><path d="M340,1028L279,1058L455,1016Z" fill="#494bda" stroke="#494bda" stroke-width="1.51"/><path d="M685,1047L145,1069L1107,1046Z" fill="#4c4ed9" stroke="#4c4ed9" stroke-width="1.51"/><path d="M343,-13L321,0L340,124Z" fill="#5f63ff" stroke="#5f63ff" stroke-width="1.51"/><path d="M343,-13L275,-149L321,0Z" fill="#5c61ff" stroke="#5c61ff" stroke-width="1.51"/><path d="M559,-110L464,-105L496,-48Z" fill="#5e63ff" stroke="#5e63ff" stroke-width="1.51"/><path d="M347,-137L464,-105L559,-110Z" fill="#5d61ff" stroke="#5d61ff" stroke-width="1.51"/><path d="M1398,15L1348,173L1472,40Z" fill="#4e50e4" stroke="#4e50e4" stroke-width="1.51"/><path d="M1471,924L1509,908L1458,845Z" fill="#3c3dc5" stroke="#3c3dc5" stroke-width="1.51"/><path d="M1677,637L1619,470L1502,597Z" fill="#494bd5" stroke="#494bd5" stroke-width="1.51"/><path d="M1519,472L1619,470L1502,377Z" fill="#5153de" stroke="#5153de" stroke-width="1.51"/><path d="M1548,1006L1509,908L1471,924Z" fill="#383ac1" stroke="#383ac1" stroke-width="1.51"/><path d="M104,284L73,429L203,438Z" fill="#6267ff" stroke="#6267ff" stroke-width="1.51"/><path d="M1509,908L1556,836L1458,845Z" fill="#3c3ec6" stroke="#3c3ec6" stroke-width="1.51"/><path d="M1362,1L1324,-148L1200,-90Z" fill="#4f51e8" stroke="#4f51e8" stroke-width="1.51"/><path d="M1513,123L1348,173L1448,214Z" fill="#4f51e3" stroke="#4f51e3" stroke-width="1.51"/><path d="M141,275L104,284L203,438Z" fill="#6266ff" stroke="#6266ff" stroke-width="1.51"/><path d="M63,226L141,275L214,216Z" fill="#6064ff" stroke="#6064ff" stroke-width="1.51"/><path d="M63,226L214,216L131,81Z" fill="#5f63ff" stroke="#5f63ff" stroke-width="1.51"/><path d="M198,849L132,893L311,930Z" fill="#4e51e4" stroke="#4e51e4" stroke-width="1.51"/><path d="M75,734L198,849L133,671Z" fill="#5457ec" stroke="#5457ec" stroke-width="1.51"/><path d="M75,734L133,671L103,600Z" fill="#595bf1" stroke="#595bf1" stroke-width="1.51"/><path d="M-32,582L75,734L103,600Z" fill="#595df3" stroke="#595df3" stroke-width="1.51"/><path d="M1677,637L1502,597L1505,691Z" fill="#4648d2" stroke="#4648d2" stroke-width="1.51"/><path d="M1578,195L1448,214L1468,250Z" fill="#4e50e0" stroke="#4e50e0" stroke-width="1.51"/><path d="M73,429L45,516L190,489Z" fill="#6266fd" stroke="#6266fd" stroke-width="1.51"/><path d="M-32,582L45,516L-70,512Z" fill="#5d61fa" stroke="#5d61fa" stroke-width="1.51"/><path d="M1578,195L1468,250L1526,294Z" fill="#4e50df" stroke="#4e50df" stroke-width="1.51"/><path d="M1448,-114L1324,-148L1362,1Z" fill="#4b4ee5" stroke="#4b4ee5" stroke-width="1.51"/><path d="M1513,123L1472,40L1348,173Z" fill="#4e50e2" stroke="#4e50e2" stroke-width="1.51"/><path d="M1513,123L1518,5L1472,40Z" fill="#4a4de0" stroke="#4a4de0" stroke-width="1.51"/><path d="M1647,285L1578,195L1526,294Z" fill="#4b4edd" stroke="#4b4edd" stroke-width="1.51"/><path d="M1556,836L1624,797L1505,691Z" fill="#3f40ca" stroke="#3f40ca" stroke-width="1.51"/><path d="M1624,891L1624,797L1556,836Z" fill="#3a3cc4" stroke="#3a3cc4" stroke-width="1.51"/><path d="M75,734L43,824L198,849Z" fill="#5154e9" stroke="#5154e9" stroke-width="1.51"/><path d="M132,893L145,1069L279,1058Z" fill="#474add" stroke="#474add" stroke-width="1.51"/><path d="M-21,792L43,824L75,734Z" fill="#5154ea" stroke="#5154ea" stroke-width="1.51"/><path d="M-9,324L-16,367L73,429Z" fill="#6065ff" stroke="#6065ff" stroke-width="1.51"/><path d="M131,81L279,186L289,43Z" fill="#5e62ff" stroke="#5e62ff" stroke-width="1.51"/><path d="M464,-105L347,-137L343,-13Z" fill="#5c61ff" stroke="#5c61ff" stroke-width="1.51"/><path d="M163,-41L131,81L289,43Z" fill="#5c60ff" stroke="#5c60ff" stroke-width="1.51"/><path d="M873,-150L347,-137L735,-125Z" fill="#5f63ff" stroke="#5f63ff" stroke-width="1.51"/><path d="M1509,908L1624,891L1556,836Z" fill="#3a3bc3" stroke="#3a3bc3" stroke-width="1.51"/><path d="M1426,984L1548,1006L1471,924Z" fill="#3739c1" stroke="#3739c1" stroke-width="1.51"/><path d="M1294,1032L1548,1006L1426,984Z" fill="#3839c1" stroke="#3839c1" stroke-width="1.51"/><path d="M163,-41L289,43L321,0Z" fill="#5d61ff" stroke="#5d61ff" stroke-width="1.51"/><path d="M1681,362L1526,294L1502,377Z" fill="#4e50dd" stroke="#4e50dd" stroke-width="1.51"/><path d="M1683,732L1677,637L1505,691Z" fill="#4243cd" stroke="#4243cd" stroke-width="1.51"/><path d="M1448,-114L1362,1L1398,15Z" fill="#4c4fe4" stroke="#4c4fe4" stroke-width="1.51"/><path d="M1200,-90L1324,-148L1103,-103Z" fill="#5154ec" stroke="#5154ec" stroke-width="1.51"/><path d="M985,-134L1324,-148L873,-150Z" fill="#5659f2" stroke="#5659f2" stroke-width="1.51"/><path d="M1685,108L1518,5L1513,123Z" fill="#484bdd" stroke="#484bdd" stroke-width="1.51"/><path d="M1681,362L1502,377L1619,470Z" fill="#4e50dc" stroke="#4e50dc" stroke-width="1.51"/><path d="M1624,797L1683,732L1505,691Z" fill="#4041ca" stroke="#4041ca" stroke-width="1.51"/><path d="M1548,1006L1624,891L1509,908Z" fill="#3738c0" stroke="#3738c0" stroke-width="1.51"/><path d="M77,1067L145,1069L132,893Z" fill="#4649dc" stroke="#4649dc" stroke-width="1.51"/><path d="M279,1058L145,1069L685,1047Z" fill="#484ad9" stroke="#484ad9" stroke-width="1.51"/><path d="M-16,367L45,516L73,429Z" fill="#6367ff" stroke="#6367ff" stroke-width="1.51"/><path d="M45,516L-32,582L103,600Z" fill="#5d60f7" stroke="#5d60f7" stroke-width="1.51"/><path d="M1624,891L1683,732L1624,797Z" fill="#3a3cc4" stroke="#3a3cc4" stroke-width="1.51"/><path d="M1683,732L1681,362L1677,637Z" fill="#4647d1" stroke="#4647d1" stroke-width="1.51"/><path d="M1677,637L1681,362L1619,470Z" fill="#4b4dd7" stroke="#4b4dd7" stroke-width="1.51"/><path d="M-9,324L73,429L104,284Z" fill="#6165ff" stroke="#6165ff" stroke-width="1.51"/><path d="M-9,324L104,284L63,226Z" fill="#5f64ff" stroke="#5f64ff" stroke-width="1.51"/><path d="M-21,792L31,891L43,824Z" fill="#4e51e7" stroke="#4e51e7" stroke-width="1.51"/><path d="M43,824L31,891L132,893Z" fill="#4d50e5" stroke="#4d50e5" stroke-width="1.51"/><path d="M-48,160L-9,324L63,226Z" fill="#5e62ff" stroke="#5e62ff" stroke-width="1.51"/><path d="M1472,40L1518,5L1398,15Z" fill="#4b4de2" stroke="#4b4de2" stroke-width="1.51"/><path d="M1644,171L1513,123L1578,195Z" fill="#4a4cdd" stroke="#4a4cdd" stroke-width="1.51"/><path d="M-32,582L-34,736L75,734Z" fill="#5659f0" stroke="#5659f0" stroke-width="1.51"/><path d="M-34,736L-21,792L75,734Z" fill="#5255ec" stroke="#5255ec" stroke-width="1.51"/><path d="M1647,285L1644,171L1578,195Z" fill="#494cdb" stroke="#494cdb" stroke-width="1.51"/><path d="M1685,108L1644,171L1647,285Z" fill="#484ad9" stroke="#484ad9" stroke-width="1.51"/><path d="M131,81L31,104L63,226Z" fill="#5d61ff" stroke="#5d61ff" stroke-width="1.51"/><path d="M209,-113L163,-41L321,0Z" fill="#5b5fff" stroke="#5b5fff" stroke-width="1.51"/><path d="M347,-137L275,-149L343,-13Z" fill="#5c60ff" stroke="#5c60ff" stroke-width="1.51"/><path d="M873,-150L275,-149L347,-137Z" fill="#5d61ff" stroke="#5d61ff" stroke-width="1.51"/><path d="M163,-41L110,15L131,81Z" fill="#5c60ff" stroke="#5c60ff" stroke-width="1.51"/><path d="M1518,5L1448,-114L1398,15Z" fill="#4a4de2" stroke="#4a4de2" stroke-width="1.51"/><path d="M1570,-88L1448,-114L1518,5Z" fill="#474ae0" stroke="#474ae0" stroke-width="1.51"/><path d="M-172,516L-70,512L-158,371Z" fill="#5f64fe" stroke="#5f64fe" stroke-width="1.51"/><path d="M-16,367L-70,512L45,516Z" fill="#6265fe" stroke="#6265fe" stroke-width="1.51"/><path d="M-32,582L-113,623L-34,736Z" fill="#575bf2" stroke="#575bf2" stroke-width="1.51"/><path d="M163,-41L67,-111L110,15Z" fill="#5a5eff" stroke="#5a5eff" stroke-width="1.51"/><path d="M275,-149L209,-113L321,0Z" fill="#5b5fff" stroke="#5b5fff" stroke-width="1.51"/><path d="M31,891L77,1067L132,893Z" fill="#494ce0" stroke="#494ce0" stroke-width="1.51"/><path d="M-46,1048L77,1067L31,891Z" fill="#4648dd" stroke="#4648dd" stroke-width="1.51"/><path d="M-48,160L31,104L-65,76Z" fill="#5b5fff" stroke="#5b5fff" stroke-width="1.51"/><path d="M110,15L31,104L131,81Z" fill="#5c60ff" stroke="#5c60ff" stroke-width="1.51"/><path d="M-9,324L-114,282L-16,367Z" fill="#5f63ff" stroke="#5f63ff" stroke-width="1.51"/><path d="M-119,833L-21,792L-34,736Z" fill="#4f53ea" stroke="#4f53ea" stroke-width="1.51"/><path d="M-119,833L-51,895L-21,792Z" fill="#4d50e7" stroke="#4d50e7" stroke-width="1.51"/><path d="M-21,792L-51,895L31,891Z" fill="#4d4fe5" stroke="#4d4fe5" stroke-width="1.51"/><path d="M-70,512L-113,623L-32,582Z" fill="#5b5ef7" stroke="#5b5ef7" stroke-width="1.51"/><path d="M-172,516L-113,623L-70,512Z" fill="#5b5ff8" stroke="#5b5ff8" stroke-width="1.51"/><path d="M1644,171L1685,108L1513,123Z" fill="#484bdb" stroke="#484bdb" stroke-width="1.51"/><path d="M1681,362L1685,108L1647,285Z" fill="#484bd9" stroke="#484bd9" stroke-width="1.51"/><path d="M1683,732L1685,108L1681,362Z" fill="#4b4dd8" stroke="#4b4dd8" stroke-width="1.51"/><path d="M31,104L-48,160L63,226Z" fill="#5d61ff" stroke="#5d61ff" stroke-width="1.51"/><path d="M-65,76L31,104L-45,-7Z" fill="#5a5fff" stroke="#5a5fff" stroke-width="1.51"/><path d="M1448,-114L1602,-169L1324,-148Z" fill="#474ae2" stroke="#474ae2" stroke-width="1.51"/><path d="M1631,-48L1570,-88L1518,5Z" fill="#4548dd" stroke="#4548dd" stroke-width="1.51"/><path d="M145,1069L1673,1062L1107,1046Z" fill="#4546d0" stroke="#4546d0" stroke-width="1.51"/><path d="M1107,1046L1673,1062L1294,1032Z" fill="#373ac1" stroke="#373ac1" stroke-width="1.51"/><path d="M1294,1032L1673,1062L1548,1006Z" fill="#3335bc" stroke="#3335bc" stroke-width="1.51"/><path d="M1548,1006L1673,1062L1624,891Z" fill="#3234ba" stroke="#3234ba" stroke-width="1.51"/><path d="M1624,891L1673,1062L1683,732Z" fill="#3537be" stroke="#3537be" stroke-width="1.51"/><path d="M-48,160L-114,282L-9,324Z" fill="#5d62ff" stroke="#5d62ff" stroke-width="1.51"/><path d="M-167,734L-119,833L-34,736Z" fill="#5053eb" stroke="#5053eb" stroke-width="1.51"/><path d="M-51,895L-46,1048L31,891Z" fill="#474be0" stroke="#474be0" stroke-width="1.51"/><path d="M-167,734L-34,736L-113,623Z" fill="#5457ef" stroke="#5457ef" stroke-width="1.51"/><path d="M1685,108L1631,-48L1518,5Z" fill="#4548db" stroke="#4548db" stroke-width="1.51"/><path d="M-158,371L-70,512L-16,367Z" fill="#6165ff" stroke="#6165ff" stroke-width="1.51"/><path d="M-114,282L-158,371L-16,367Z" fill="#5f63ff" stroke="#5f63ff" stroke-width="1.51"/><path d="M-127,939L-46,1048L-51,895Z" fill="#4649df" stroke="#4649df" stroke-width="1.51"/><path d="M-48,160L-165,188L-114,282Z" fill="#5c60ff" stroke="#5c60ff" stroke-width="1.51"/><path d="M-114,282L-165,188L-158,371Z" fill="#5d61ff" stroke="#5d61ff" stroke-width="1.51"/><path d="M209,-113L67,-111L163,-41Z" fill="#595eff" stroke="#595eff" stroke-width="1.51"/><path d="M275,-149L67,-111L209,-113Z" fill="#595dff" stroke="#595dff" stroke-width="1.51"/><path d="M-45,-7L31,104L110,15Z" fill="#5b5fff" stroke="#5b5fff" stroke-width="1.51"/><path d="M-119,833L-127,939L-51,895Z" fill="#4a4de4" stroke="#4a4de4" stroke-width="1.51"/><path d="M-172,516L-167,734L-113,623Z" fill="#575bf4" stroke="#575bf4" stroke-width="1.51"/><path d="M-167,734L-127,939L-119,833Z" fill="#4c4fe7" stroke="#4c4fe7" stroke-width="1.51"/><path d="M67,-111L-45,-7L110,15Z" fill="#595dff" stroke="#595dff" stroke-width="1.51"/><path d="M-65,76L-165,188L-48,160Z" fill="#5b5fff" stroke="#5b5fff" stroke-width="1.51"/><path d="M1631,-48L1602,-169L1570,-88Z" fill="#4346db" stroke="#4346db" stroke-width="1.51"/><path d="M1570,-88L1602,-169L1448,-114Z" fill="#4548de" stroke="#4548de" stroke-width="1.51"/><path d="M1324,-148L1602,-169L873,-150Z" fill="#4e51e9" stroke="#4e51e9" stroke-width="1.51"/><path d="M873,-150L-100,-166L275,-149Z" fill="#5a5fff" stroke="#5a5fff" stroke-width="1.51"/><path d="M1685,108L1602,-169L1631,-48Z" fill="#4346da" stroke="#4346da" stroke-width="1.51"/><path d="M-159,58L-165,188L-65,76Z" fill="#595eff" stroke="#595eff" stroke-width="1.51"/><path d="M-158,371L-165,188L-172,516Z" fill="#5e62ff" stroke="#5e62ff" stroke-width="1.51"/><path d="M-155,1L-159,58L-65,76Z" fill="#585dff" stroke="#585dff" stroke-width="1.51"/><path d="M67,-111L-66,-88L-45,-7Z" fill="#575cff" stroke="#575cff" stroke-width="1.51"/><path d="M-100,-166L-66,-88L67,-111Z" fill="#565aff" stroke="#565aff" stroke-width="1.51"/><path d="M-155,1L-65,76L-45,-7Z" fill="#585dff" stroke="#585dff" stroke-width="1.51"/><path d="M-127,939L-165,1069L-46,1048Z" fill="#4345db" stroke="#4345db" stroke-width="1.51"/><path d="M-46,1048L-165,1069L77,1067Z" fill="#4144d9" stroke="#4144d9" stroke-width="1.51"/><path d="M77,1067L-165,1069L145,1069Z" fill="#4145d8" stroke="#4145d8" stroke-width="1.51"/><path d="M-167,734L-165,1069L-127,939Z" fill="#474be2" stroke="#474be2" stroke-width="1.51"/><path d="M-172,516L-165,1069L-167,734Z" fill="#4f52eb" stroke="#4f52eb" stroke-width="1.51"/><path d="M-66,-88L-155,1L-45,-7Z" fill="#575cff" stroke="#575cff" stroke-width="1.51"/><path d="M-66,-88L-100,-166L-155,1Z" fill="#565aff" stroke="#565aff" stroke-width="1.51"/><path d="M275,-149L-100,-166L67,-111Z" fill="#575cff" stroke="#575cff" stroke-width="1.51"/><path d="M1602,-169L-100,-166L873,-150Z" fill="#5e63fe" stroke="#5e63fe" stroke-width="1.51"/></svg>